<svg id="Layer_1" data-name="Layer 1" xmlns="http://www.w3.org/2000/svg" viewBox="0 0 15 15"><defs><style>.cls-1{fill:none;stroke:#fff;stroke-miterlimit:10;stroke-width:0.93303px;}</style></defs><title>call</title><path class="cls-1" d="M13.7167,11.3355a1.5716,1.5716,0,0,1-.1568.678,2.56568,2.56568,0,0,1-.4264.6344,2.82752,2.82752,0,0,1-1.0286.734,3.17241,3.17241,0,0,1-1.223.2364,5.26315,5.26315,0,0,1-2.04467-.4541,11.03894,11.03894,0,0,1-2.15752-1.2316,17.98917,17.98917,0,0,1-2.05717-1.7417A17.70942,17.70942,0,0,1,2.87269,8.157,11.06644,11.06644,0,0,1,1.64341,6.03587a5.20253,5.20253,0,0,1-.45158-2.034,3.1945,3.1945,0,0,1,.22579-1.20049,2.86249,2.86249,0,0,1,.72126-1.03877,1.84461,1.84461,0,0,1,1.30455-.58469,1.18682,1.18682,0,0,1,.508.112,1.02054,1.02054,0,0,1,.42022.34833l1.45507,2.034a2.12367,2.12367,0,0,1,.25087.43541.9763.9763,0,0,1,.08781.37943.83926.83926,0,0,1-.13171.44163,2.11826,2.11826,0,0,1-.35122.44163l-.47667.4914a.33143.33143,0,0,0-.10035.2488.56063.56063,0,0,0,.01882.14307c.01882.04976.03763.08708.05018.1244a5.16265,5.16265,0,0,0,.58328.79618c.28223.32345.58328.65312.90942.98279.33868.32967.66481.63446.99722.91436a4.81376,4.81376,0,0,0,.80907.57226c.03136.01244.069.0311.1129.04976a.4363.4363,0,0,0,.15679.02488.34648.34648,0,0,0,.25715-.10574L9.477,9.146a1.92219,1.92219,0,0,1,.45158-.34833A.84006.84006,0,0,1,10.3738,8.667a1.00808,1.00808,0,0,1,.3826.08086,2.43224,2.43224,0,0,1,.4391.24259l2.0759,1.46175a.94592.94592,0,0,1,.345.3981A1.26738,1.26738,0,0,1,13.7167,11.3355Z"/></svg>