<?xml version="1.0" encoding="utf-8"?>
<!-- Generator: Adobe Illustrator 18.1.1, SVG Export Plug-In . SVG Version: 6.00 Build 0)  -->
<svg version="1.1" id="Layer_1" xmlns="http://www.w3.org/2000/svg" xmlns:xlink="http://www.w3.org/1999/xlink" x="0px" y="0px"
	 viewBox="0 0 100 100" style="enable-background:new 0 0 100 100;" xml:space="preserve">
<style type="text/css">
	.st0{fill:#B30920;}
</style>
<title>Customer-Centric-Focus</title>
<g>
	<g>
		<path class="st0" d="M49.3,3.2L49.3,3.2c-0.7,0.3-1.2,0.9-1.5,1.5c-0.4,0.9-0.5,1.9-0.5,2.9v2.2l-0.4,0.1l-2.1,0.3h0
			c-5.7,0.9-11.2,3-16,6.2l0,0c-2.2,1.4-4.2,3.1-6,4.9c-6.3,6.2-10.4,14.3-11.7,23.1l0,0L10.9,46l-0.1,0.4H8.6
			c-1.3-0.2-2.6,0.2-3.6,1C4.2,48,3.8,49,3.9,50c-0.1,1.1,0.4,2.1,1.2,2.8c0.4,0.3,0.8,0.6,1.3,0.7c0.7,0.2,1.5,0.2,2.3,0.2h2.2
			l0.1,0.4l0.2,1.5l0,0c1.2,8.8,5.3,16.9,11.7,23.1c1.8,1.9,3.9,3.5,6,4.9l0,0c4.9,3.2,10.3,5.3,16.1,6.2l0,0l2,0.3l0.4,0.1v2.2
			c-0.1,1,0.1,2,0.5,2.9c0.3,0.7,0.9,1.2,1.6,1.5c0.5,0.2,1.1,0.3,1.6,0.3c0.6,0,1.1-0.1,1.6-0.3v0l0,0c0.4-0.2,0.8-0.5,1.1-0.9
			c0.3-0.4,0.6-0.8,0.7-1.2c0.1-0.3,0.1-0.6,0.1-0.9c0-0.4,0.1-1,0.1-1.4v-2.2l0.4-0.1l1.5-0.2l0,0c4.2-0.6,8.2-1.8,12-3.7
			c3.9-1.9,7.5-4.4,10.6-7.5l0,0c6.3-6.2,10.5-14.3,11.7-23.1v0L91,54l0.1-0.4h2.2c0.8,0,1.5,0,2.3-0.2c0.5-0.1,0.9-0.4,1.3-0.7
			c1.5-1.3,1.7-3.7,0.3-5.2c-0.1-0.1-0.1-0.2-0.2-0.2l0,0c-1-0.8-2.4-1.1-3.6-1h-2.2L91,46l-0.2-1.5v0c-1.2-8.8-5.3-16.9-11.7-23.1
			h0c-3.1-3.1-6.7-5.6-10.6-7.5c-3.8-1.9-7.8-3.1-12-3.7l0,0L55,9.9l-0.4-0.1V7.7c0-0.5,0-1-0.1-1.4c0-0.3-0.1-0.6-0.1-0.9
			c-0.2-0.4-0.4-0.9-0.7-1.2c-0.3-0.4-0.7-0.7-1.1-0.9l0,0c-0.5-0.2-1.1-0.3-1.7-0.3C50.4,2.9,49.8,3,49.3,3.2z M47.4,19.6
			L47.4,19.6c0,0.6,0,1.1,0.1,1.7c0.1,0.3,0.2,0.6,0.4,0.9l0,0c0.6,1.1,1.8,1.8,3.1,1.7c0.5,0,1-0.1,1.4-0.2
			c0.4-0.2,0.8-0.4,1.1-0.8c0.4-0.3,0.6-0.7,0.8-1.2c0.2-0.7,0.3-1.4,0.3-2.1v0l0.1-1.9l0-0.5l0.5,0.1l0.9,0.1
			c5.1,0.9,9.9,2.9,14.2,5.9l0,0c1.4,1.1,2.8,2.3,4,3.6c1.3,1.2,2.5,2.6,3.6,4l0,0c3,4.2,5,9.1,5.8,14.2l0,0l0.1,0.9l0.1,0.5l-0.5,0
			l-1.9,0.1l0,0c-0.6,0-1.1,0-1.7,0.1c-0.3,0.1-0.6,0.2-0.9,0.4l0,0c-1.7,1.1-2.2,3.4-1.1,5.1c0.3,0.4,0.7,0.8,1.1,1.1l0,0
			c0.3,0.2,0.6,0.3,0.9,0.4c0.6,0.1,1.1,0.1,1.7,0.1h0l1.9,0.1l0.5,0l-0.1,0.5L83.6,55l0,0C81.5,68.1,71.8,78.7,59,82h0
			c-1.1,0.3-2.4,0.6-2.9,0.6l-0.9,0.1l-0.5,0.1l0-0.5l-0.1-1.9v0c0-0.6,0-1.1-0.1-1.7c-0.1-0.3-0.2-0.6-0.4-0.9l0,0
			c-1.1-1.7-3.4-2.2-5.1-1.1c-0.4,0.3-0.8,0.7-1.1,1.1l0,0c-0.2,0.3-0.3,0.6-0.4,0.9c-0.1,0.6-0.1,1.1-0.1,1.7v0l-0.1,1.9l0,0.5
			l-0.5-0.1l-0.9-0.1l0,0c-5.1-0.9-9.9-2.9-14.2-5.8l0,0c-1.4-1.1-2.8-2.3-4-3.6c-1.3-1.2-2.5-2.6-3.6-4l0,0c-3-4.2-5-9.1-5.8-14.2
			l0,0l-0.1-0.9l-0.1-0.5l0.5,0l1.9-0.1h0c0.7,0,1.4-0.1,2.1-0.3c0.5-0.2,0.9-0.4,1.2-0.8c0.3-0.3,0.6-0.7,0.8-1.1
			c0.2-0.5,0.2-1,0.2-1.4c0.1-1.3-0.6-2.5-1.7-3.1l0,0c-0.3-0.2-0.6-0.3-0.9-0.4c-0.6-0.1-1.1-0.1-1.7-0.1l0,0l-1.9-0.1l-0.5,0
			l0.1-0.5l0.1-0.9l0,0c0.7-3.8,1.9-7.5,3.8-10.9c2.5-4.3,5.8-8.1,9.9-11c3.7-2.6,8-4.4,12.4-5.4l0,0c0.2,0,0.4-0.1,0.6-0.1
			c0.4-0.1,0.7-0.1,0.9-0.2c0.2,0,0.3,0,0.5,0c0.2,0,0.3,0,0.5,0.1c0.3,0.2,0.4,0.5,0.4,0.9c0,0.2,0,0.5,0,0.8
			C47.3,19.3,47.3,19.4,47.4,19.6z"/>
		<path class="st0" d="M48.5,30.5c-4.2,1.4-6.5,5.9-5.1,10.1c1.4,4.2,5.9,6.5,10.1,5.1c4.2-1.4,6.5-5.9,5.1-10
			C57.2,31.5,52.7,29.1,48.5,30.5C48.5,30.5,48.5,30.5,48.5,30.5z"/>
		<path class="st0" d="M42.5,50.5c-1.7,0.5-3.3,1.5-4.5,2.9c-2.1,2.3-3.1,5.2-3,8.3c0,2.2,0.4,3.2,1.7,3.8l0.8,0.4h27l0.8-0.4
			c1.3-0.7,1.7-1.6,1.7-3.8c0-1-0.1-2.1-0.3-3.1c-0.8-3.8-3.6-6.9-7.4-8.2C57.8,50,57.7,50,50.9,50H44L42.5,50.5z"/>
	</g>
</g>
</svg>
