<?xml version="1.0" encoding="utf-8"?>
<!-- Generator: Adobe Illustrator 18.1.1, SVG Export Plug-In . SVG Version: 6.00 Build 0)  -->
<svg version="1.1" id="Layer_1" xmlns="http://www.w3.org/2000/svg" xmlns:xlink="http://www.w3.org/1999/xlink" x="0px" y="0px"
	 viewBox="0 0 100 100" style="enable-background:new 0 0 100 100;" xml:space="preserve">
<style type="text/css">
	.st0{fill:#B30920;}
</style>
<g>
	<path class="st0" d="M46.9,96.8c-2.8-0.4-5.5-1-8.1-2.1C28.4,90.2,22,82.4,20.3,71.1c-2.4-16.4,9-31.5,25.4-33.9
		c16.6-2.3,31,9,33.8,24.3c2.9,16.4-7.8,31.9-24.2,34.9c-0.7,0.1-1.5,0.2-2.2,0.4C51,96.8,49,96.8,46.9,96.8z M56.1,73.1
		c0.1,0.1,0.1,0.1,0.2,0.2c0.3,0.1,0.5,0.2,0.8,0.3c5.4,1.9,9.6,5.4,12.4,10.4c0.6,1,0.6,1,1.3,0.1c5.3-6.6,7.3-14.1,5.7-22.4
		C73.9,48.7,61.7,39,47.9,40.1c-6.3,0.5-11.8,2.9-16.3,7.2c-6.4,6.2-9.2,13.8-8.3,22.7c0.6,5.4,2.7,10.1,6.1,14.2
		c0.4,0.5,0.7,0.6,1-0.1c2.7-5.2,6.9-8.7,12.5-10.7c0.3-0.1,0.7-0.1,0.9-0.4C36.2,68,37.4,58.7,42,54.5c4.9-4.5,12.6-4.1,17,1
		C63.3,60.6,62.6,68.8,56.1,73.1z M50,75.5c-0.7,0-1.4,0.1-2,0.2c-6.9,0.9-11.9,4.5-15.1,10.7c-0.4,0.7-0.3,1.2,0.4,1.7
		c5.4,4.2,11.5,6.2,18.4,5.7c5.5-0.3,10.3-2.2,14.7-5.5c1.3-1,1.3-1,0.6-2.3C63.2,79.2,57.5,75.8,50,75.5z M50,71.6
		c4.7,0,8.6-3.7,8.6-8.4c0-4.9-3.7-8.7-8.6-8.7c-4.6,0-8.5,3.8-8.5,8.5C41.4,67.7,45.2,71.5,50,71.6z"/>
	<path class="st0" d="M50.7,3.2c0.5,0.4,0.8,1,1,1.6c0.7,2.2,1.5,4.4,2.1,6.6c0.2,0.8,0.7,1.1,1.5,1.1c2.3-0.1,4.7,0,7,0
		c0.9,0,1.6,0.1,1.9,1c0.3,0.9-0.2,1.6-0.9,2.1c-1.9,1.3-3.7,2.8-5.6,4c-0.8,0.5-0.9,1-0.6,1.9c0.8,2.2,1.5,4.5,2.2,6.8
		c0.3,0.8,0.2,1.5-0.5,2c-0.7,0.5-1.4,0.3-2-0.2c-2-1.5-4.1-2.9-6-4.4c-0.6-0.4-0.9-0.4-1.5,0c-1.9,1.5-3.9,2.9-5.9,4.3
		c-0.7,0.5-1.4,0.8-2.2,0.2c-0.8-0.6-0.7-1.3-0.5-2.1c0.8-2.3,1.5-4.6,2.3-6.9c0.2-0.7,0.1-1.1-0.5-1.5c-2-1.4-3.9-2.8-5.9-4.2
		c-0.5-0.4-1-0.7-1-1.4c-0.1-1,0.5-1.6,1.6-1.7c2.5,0,4.9,0,7.4,0c0.8,0,1.2-0.2,1.5-1.1c0.7-2.2,1.4-4.4,2.1-6.6
		c0.2-0.6,0.5-1.2,1-1.6C49.8,3.2,50.2,3.2,50.7,3.2z M54.9,24.9c-0.5-1.6-0.9-2.9-1.4-4.2c-0.4-1.3-0.3-1.7,0.8-2.5
		c1.1-0.8,2.3-1.7,3.6-2.7c-1.8,0-3.3,0-4.8,0c-0.9,0-1.4-0.4-1.7-1.2c-0.2-0.7-0.4-1.5-0.7-2.2c-0.2-0.7-0.3-1.4-0.9-2.1
		c-0.4,1.3-0.8,2.6-1.2,3.8c-0.5,1.4-0.8,1.7-2.3,1.7c-1.4,0-2.8,0-4.4,0c1.3,0.9,2.4,1.7,3.5,2.5c1.4,1,1.5,1.3,0.9,2.9
		c-0.4,1.2-0.8,2.5-1.3,3.9c1.3-0.9,2.4-1.7,3.5-2.5c1.2-0.9,1.6-0.9,2.8,0C52.5,23.1,53.6,23.9,54.9,24.9z"/>
	<path class="st0" d="M12.6,38c0-1.7,0-3.3,0-5c0-0.8-0.2-1.3-1-1.5c-2.3-0.7-4.5-1.6-6.7-2.4c-0.8-0.3-1.4-0.7-1.4-1.7
		c0-1,0.7-1.4,1.5-1.6c2.3-0.7,4.5-1.4,6.8-2c0.8-0.2,1.1-0.6,1.1-1.4c0-1.4,0-2.9,0.1-4.3c0-1,0.1-2.1,0.1-3.1
		c0-0.8,0.3-1.4,1.1-1.6c0.8-0.3,1.4,0.1,1.9,0.8c1,1.4,2,2.9,2.9,4.3c0.4,0.6,0.9,1.2,1.3,1.9c0.4,0.7,0.8,0.7,1.5,0.5
		c2.3-0.7,4.6-1.4,6.9-2.1c0.8-0.3,1.6-0.3,2.1,0.5c0.6,0.8,0.2,1.5-0.3,2.2c-1.5,1.9-3,3.9-4.5,5.8c-0.4,0.5-0.4,1,0,1.5
		c1.4,2,2.7,4,4.1,5.9c0.5,0.7,0.8,1.5,0.2,2.3c-0.6,0.8-1.4,0.6-2.2,0.4c-2.3-0.8-4.6-1.6-6.9-2.5c-0.6-0.2-1-0.1-1.4,0.4
		c-1.5,2-3,3.9-4.4,5.8c-0.5,0.7-1.2,1.2-2.1,0.8c-0.9-0.3-1-1.1-1-1.9c0-0.7,0-1.4,0-2.1C12.5,38,12.6,38,12.6,38z M24.7,32.8
		c0.1-0.1,0.1-0.1,0.2-0.2c-0.7-1.1-1.5-2.1-2.2-3.2c-0.8-1.2-0.8-1.6,0.1-2.8c0.6-0.7,1.1-1.4,1.7-2.2c0.3-0.3,0.6-0.6,0.7-1.1
		c-0.1,0-0.2,0-0.3,0c-1.1,0.3-2.2,0.6-3.2,0.9c-1.9,0.6-2.2,0.5-3.3-1.2c-0.7-1-1.3-1.9-2.1-3.1c-0.3,1.6-0.2,3-0.2,4.4
		c0,1.2-0.4,1.6-1.5,2c-1.4,0.4-2.7,0.8-4.3,1.3c1.5,0.5,2.7,1,3.9,1.4c1.5,0.5,1.8,0.9,1.8,2.6c0,1.3,0,2.6,0,4
		c0.8-1.1,1.7-2.2,2.5-3.2c0.9-1.2,1.3-1.3,2.7-0.8C22.2,31.9,23.4,32.3,24.7,32.8z"/>
	<path class="st0" d="M96.5,27.4c0,0.9-0.5,1.3-1.3,1.6c-2.3,0.8-4.6,1.7-6.9,2.4c-0.8,0.3-1,0.7-1,1.5c0.1,2.4,0.1,4.8,0.2,7.2
		c0,0.8-0.1,1.5-1,1.8c-0.9,0.3-1.5-0.1-2-0.8c-1.5-1.9-3-3.9-4.4-5.8c-0.4-0.6-0.8-0.7-1.5-0.4c-2.3,0.9-4.6,1.7-6.9,2.5
		c-0.8,0.3-1.6,0.4-2.1-0.4c-0.6-0.8-0.3-1.5,0.2-2.2c1.4-2,2.7-4,4.1-5.9c0.4-0.6,0.4-1,0-1.6c-1.5-1.9-3-3.8-4.4-5.7
		c-0.5-0.7-0.9-1.4-0.3-2.2c0.6-0.8,1.3-0.7,2.1-0.5c2.2,0.7,4.4,1.3,6.6,2c0.9,0.3,1.4,0.2,1.9-0.6c1.3-2,2.6-3.9,3.9-5.8
		c0.5-0.7,1.1-1.2,2-1c0.9,0.3,1.1,1,1.1,1.9C87,17.5,87,19.8,87,22c0,1.5,0.1,1.5,1.4,1.9c2.2,0.6,4.4,1.3,6.6,1.9
		C95.9,26.1,96.5,26.5,96.5,27.4z M75.2,32.5c0.1,0.1,0.1,0.2,0.2,0.2c1.3-0.5,2.6-0.9,3.8-1.3c1.2-0.4,1.6-0.3,2.4,0.7
		c0.9,1.1,1.7,2.2,2.7,3.5c0.2-1.3-0.1-2.5-0.1-3.6c0-2.3,0.1-2.4,2.2-3.2c1.1-0.4,2.2-0.8,3.3-1.2c-0.1-0.1-0.2-0.2-0.2-0.2
		c-1.1-0.3-2.2-0.7-3.3-1c-2-0.6-2.1-0.8-2.2-2.9c0-1.2,0-2.3-0.3-3.6c-0.8,1.2-1.5,2.3-2.3,3.4c-0.9,1.2-1.2,1.4-2.7,0.9
		c-1.3-0.4-2.5-0.7-3.8-1.1c0.7,1.2,1.6,2.3,2.4,3.4c0.8,1.1,0.8,1.6,0.1,2.7C76.6,30.4,75.9,31.5,75.2,32.5z"/>
</g>
</svg>
