<?xml version="1.0" encoding="utf-8"?>
<!-- Generator: Adobe Illustrator 18.1.1, SVG Export Plug-In . SVG Version: 6.00 Build 0)  -->
<svg version="1.1" id="Layer_1" xmlns="http://www.w3.org/2000/svg" xmlns:xlink="http://www.w3.org/1999/xlink" x="0px" y="0px"
	 viewBox="0 0 100 100" style="enable-background:new 0 0 100 100;" xml:space="preserve">
<style type="text/css">
	.st0{fill:#B30920;stroke:#FFFFFF;stroke-width:0.3;}
	.st1{fill:#B30920;}
</style>
<path class="st0" d="M-434.3,263.5L-434.3,263.5L-434.3,263.5c-0.7,0.6-1.6,1-2.6,1c-0.9,0-1.8-0.3-2.5-0.9l0,0
	c-0.8-0.7-9.4-8.1-17.8-18.6c-8.5-10.6-16.7-24-16.7-36.4c0-9.8,3.9-19.2,10.8-26.1c7-7,16.4-10.9,26.2-10.9s19.2,3.9,26.1,10.8
	c7,7,10.9,16.4,10.9,26.2c0,12.5-8.1,25.8-16.6,36.4C-424.9,255.5-433.6,262.9-434.3,263.5z M-437.5,254.8l0.6,0.5l0.6-0.5
	c5.1-4.7,12.2-12.2,18.1-20.6c5.9-8.3,10.6-17.5,10.6-25.7c0-7.8-3.1-15.2-8.6-20.7s-12.9-8.6-20.7-8.6c-7.8,0-15.2,3.1-20.7,8.6
	s-8.6,12.9-8.6,20.7c0,8.2,4.7,17.4,10.6,25.7C-449.7,242.6-442.5,250.1-437.5,254.8z M-446.9,193.6c3-2,6.5-3,10-3
	c4.8,0,9.4,1.9,12.8,5.3c3.4,3.4,5.3,8,5.3,12.8c0,3.6-1.1,7.1-3,10c-2,3-4.8,5.3-8.1,6.7c-3.3,1.4-6.9,1.7-10.4,1
	c-3.5-0.7-6.7-2.4-9.2-4.9s-4.2-5.7-4.9-9.2c-0.7-3.5-0.3-7.1,1-10.4C-452.2,198.4-449.9,195.5-446.9,193.6z M-442.6,217.1
	c1.7,1.2,3.7,1.8,5.7,1.8c2.7,0,5.4-1.1,7.3-3c1.9-1.9,3-4.6,3-7.3c0-2-0.6-4-1.7-5.7c-1.1-1.7-2.7-3-4.6-3.8s-4-1-6-0.6
	c-2,0.4-3.8,1.4-5.3,2.8c-1.4,1.4-2.4,3.3-2.8,5.3s-0.2,4.1,0.6,6C-445.6,214.4-444.3,216-442.6,217.1z"/>
<g>
	<path class="st1" d="M54,2c2.3,0.4,4.7,0.8,6.9,1.7C70.9,7.8,77.2,15.2,79.1,26c2.8,15.4-8.3,30.6-23.7,33
		C40.6,61.3,26.7,52,23,37.8c-3.7-14,4.2-29.2,18-34.2c2.2-0.8,4.4-1.2,6.7-1.6C49.7,2,51.8,2,54,2z M75.1,39.3
		c3.5-8.7,1.6-21.8-8.9-29.6c-10.2-7.6-24.4-6.5-33.6,2.5c-8.7,8.5-8.9,20.6-6,27.1c0.7-1,1.5-1.8,2.6-2.3c0.6-0.3,0.6-0.6,0.3-1.1
		c-2.3-3.9-0.5-8.4,3.8-9.7c0.6-0.2,1-0.5,1.3-1c0.6-1,1.4-1.8,2.5-2.3c0.7-0.4,0.8-0.6,0.4-1.4c-1.9-3-0.9-7,2.2-8.9
		c3.1-1.8,7.1-0.9,8.8,2.2c1.3,2.3,1.2,4.6-0.2,6.8c-0.3,0.5-0.3,0.8,0.3,1.1c0.7,0.3,1.3,0.8,1.8,1.3c0.4,0.4,0.7,0.5,1,0
		c0.4-0.5,0.9-0.9,1.5-1.1c0.9-0.4,0.9-0.7,0.4-1.6c-1.3-2.2-1.2-4.5,0.1-6.6c1.3-2.1,3.3-3.2,5.7-3c5.1,0.3,7.7,5.6,5.1,10
		c-0.3,0.5-0.3,0.7,0.2,1c1.2,0.6,2.2,1.5,2.9,2.7c0.2,0.3,0.4,0.6,0.8,0.7c4.4,0.9,6.6,6.1,4,9.9c-0.3,0.4-0.3,0.7,0.2,0.9
		C73.3,37.4,74.2,38.2,75.1,39.3z M57.3,48.7c0-1.8,0-3.6,0-5.4c0-2.6-1.6-4.4-4.3-4.5c-1.5-0.1-3-0.1-4.5,0
		c-2.1,0.1-4.4,1.6-4.3,4.4c0.1,3.8,0.1,7.5,0,11.3c0,0.9,0.2,1.3,1.1,1.4c3.7,0.7,7.3,0.7,11-0.1c0.7-0.1,0.9-0.4,0.9-1.1
		C57.3,52.8,57.3,50.7,57.3,48.7z M67.1,38.8c-1.1,0-1.8,0-2.6,0c-2.4,0.1-4.3,1.8-4.3,3.9c0,3.7,0,7.5,0,11.2
		c0,0.6,0.1,0.9,0.8,0.6c5.1-2.2,9.1-5.7,12-10.5c0.3-0.4,0.3-0.8,0.3-1.3c-0.2-1.9-1.4-3-3.2-3.6C69,38.7,67.9,38.8,67.1,38.8z
		 M41.4,48.3c0-1.7,0-3.4,0-5c0-2.4-1.2-3.9-3.5-4.3c-1.9-0.4-3.9-0.2-5.8-0.1c-1.2,0.1-2.2,0.7-2.9,1.7c-0.9,1.2-1.1,2.6-0.3,3.9
		c2.9,4.5,6.8,7.9,11.7,10c0.6,0.3,0.8,0.2,0.8-0.5C41.4,52,41.4,50.2,41.4,48.3z M43.1,24.6c-1,0-1.7,0-2.4,0c-1.1,0-2.1,0.5-3,1.1
		c-0.4,0.3-0.5,0.5,0.1,0.9c3.7,2.2,4.6,5.7,2.4,9.4c-0.3,0.4-0.2,0.6,0.2,0.8c0.8,0.4,1.5,0.8,2,1.5c0.4,0.4,0.6,0.3,0.9,0
		c0.5-0.6,1.1-1,1.8-1.3c0.7-0.3,0.6-0.6,0.3-1.2c-1.9-3-1-7.1,2-8.9c1.1-0.7,1.1-0.9,0-1.5c-0.4-0.2-0.8-0.4-1.3-0.5
		C45,24.5,43.9,24.7,43.1,24.6z M58.8,24.6c-0.7,0-1.5,0-2.2,0c-1.1,0.1-2.2,0.4-3.1,1.2c-0.3,0.3-0.4,0.5,0.1,0.7
		c3.5,1.6,4.7,6.2,2.4,9.5c-0.3,0.4-0.2,0.6,0.2,0.8c0.8,0.4,1.5,0.8,2,1.5c0.3,0.3,0.6,0.4,0.9,0c0.5-0.6,1.2-1.1,1.9-1.4
		c0.6-0.3,0.5-0.5,0.2-1c-0.7-1-1.1-2.1-1.1-3.2c-0.1-2.7,1.1-4.7,3.4-6c0.7-0.4,0.7-0.7,0.1-1.1c-0.3-0.2-0.5-0.3-0.8-0.5
		C61.6,24.4,60.2,24.6,58.8,24.6z M62.3,18.2c0-2-1.5-3.6-3.5-3.7c-2,0-3.6,1.6-3.7,3.6c0,2,1.5,3.6,3.6,3.6
		C60.8,21.8,62.3,20.3,62.3,18.2z M66.6,35.9c2,0,3.7-1.5,3.7-3.5c0-2-1.6-3.6-3.6-3.7c-2,0-3.6,1.5-3.6,3.6
		C63.1,34.4,64.6,35.9,66.6,35.9z M38.4,32.4c0-2-1.5-3.6-3.5-3.7c-2,0-3.6,1.6-3.7,3.6c0,2,1.6,3.6,3.6,3.6
		C36.9,35.9,38.4,34.5,38.4,32.4z M39.2,18.2c0,2.1,1.5,3.6,3.6,3.6c2,0,3.6-1.6,3.6-3.6c0-2-1.6-3.6-3.6-3.6
		C40.8,14.5,39.2,16.1,39.2,18.2z M50.8,35.9c2,0,3.7-1.6,3.7-3.6c0-1.9-1.7-3.6-3.6-3.6c-2,0-3.6,1.6-3.7,3.6
		C47.1,34.3,48.8,35.9,50.8,35.9z"/>
	<path class="st1" d="M18.5,97.5c-1.3-0.6-2-1.7-2.2-3.1c-0.2-2.1-0.6-4.1-1-6.2c-0.3-1.9,0.6-3.3,2.6-3.7c1.8-0.4,1.8-0.4,1.6-2.2
		c-0.2-2.1-1.1-3.7-2.8-4.9c-1.6-1.1-3.2-2.4-4.8-3.6c-2.9-2.2-4.3-5.1-4.4-8.7c0-6,0-12.1-0.2-18.1c-0.1-4.5-0.1-9-0.1-13.5
		c0-0.8,0.1-1.5,0.2-2.2c0.5-2.5,2.5-4.1,5.2-4.1c2.4-0.1,4.7,1.5,5.1,3.7c0.3,1.8,0.5,3.6,0.7,5.5c0.5,4.5,0.9,9.1,1.4,13.6
		c0.1,0.5-0.1,1.2,0.3,1.6c0.4,0.4,1,0,1.5,0.1c1.4,0.1,2.6,0.5,3.7,1.3c4.9,3.6,9.7,7.1,14.5,10.8c2.6,2,3.3,4.9,3.5,8
		c0.2,2.6,0.4,5.2,0.5,7.8c0,0.7,0.4,0.9,1,0.7c2.2-0.4,3.5,0.6,3.9,2.8c0.4,2.1,0.7,4.3,1.1,6.4c0.3,2.1-0.7,3.5-2.8,3.8
		c-8.6,1.4-17.2,2.7-25.8,4.1c-0.2,0-0.4,0.1-0.5,0.1C20,97.5,19.3,97.5,18.5,97.5z M41,79.2c-0.2-2.5-0.4-5.2-0.5-7.8
		c-0.1-2.7-1.2-4.8-3.4-6.4c-4.3-3.1-8.5-6.2-12.7-9.3c-0.6-0.4-1.2-0.8-2-1.1c-1.6-0.5-3.4,0.2-4.3,1.6c-0.9,1.4-0.7,2.9,0.6,4.3
		c0.5,0.6,1.2,1.1,1.9,1.6c2.4,1.8,4.8,3.5,7.2,5.3c1,0.8,1.2,1.7,0.4,2.4c-0.7,0.6-1.4,0.4-2-0.1c-2-1.5-4-2.9-6-4.4
		c-1.2-0.9-2.4-1.7-3.4-2.7c-2.6-2.7-2.6-6.2,0-8.9c0.4-0.4,0.6-0.8,0.5-1.3c-0.2-1.8-0.4-3.5-0.6-5.3c-0.5-5-1-10-1.5-15
		c-0.1-1.1-0.9-1.8-2-1.9c-1.5-0.1-2.4,0.4-2.7,1.6C10,32.7,10,33.8,10,34.8c0.2,5,0,10,0.2,15c0.2,5,0.1,10.1,0.2,15.1
		c0,3,1.2,5.2,3.5,6.9c1.8,1.3,3.6,2.7,5.4,4c1.3,1,2.1,2.2,2.6,3.8c0.3,1,0.4,2,0.6,3c0.1,0.8,0.4,1.1,1.2,0.9
		c5.3-0.9,10.6-1.7,15.9-2.5C41.1,80.8,41.1,80.9,41,79.2z M19.9,94.7c0.8-0.1,1.4-0.2,2.1-0.3c8-1.3,16-2.6,24-3.8
		c0.9-0.1,1.1-0.6,1-1.4c-0.3-1.7-0.5-3.4-0.8-5.1c-0.2-1.2-0.3-1.2-1.5-1c-5.4,0.9-10.7,1.7-16.1,2.5c-3.2,0.5-6.4,1-9.6,1.5
		c-0.5,0.1-0.9,0.2-0.8,0.9c0.3,2,0.6,4,1,6.1C19.2,94.5,19.4,94.9,19.9,94.7z"/>
	<path class="st1" d="M80.8,97.5c-3.3-0.5-6.5-1.1-9.8-1.6c-5.5-0.9-11.1-1.7-16.7-2.6c-1.8-0.3-2.9-1.6-2.7-3.3
		c0.3-2.5,0.7-5,1.2-7.5c0.3-1.6,1.9-2.5,3.6-2.2c0.8,0.2,1.2,0,1.2-0.9c0.1-2.5,0.4-5,0.5-7.4c0.1-3.9,1.5-7,4.8-9.3
		c4.1-2.8,8-5.8,11.9-8.8c1.8-1.4,3.7-2.5,6.2-2.1c0.5,0.1,0.6-0.3,0.6-0.6c0.4-4.3,0.9-8.6,1.3-12.9c0.2-2.3,0.5-4.7,0.8-7
		c0.3-2.5,3.1-4.3,5.7-3.9c3.1,0.5,4.7,2.2,4.8,5.5c0.1,4.6,0.1,9.3-0.1,13.9c-0.1,1.5,0,3,0,4.6c-0.1,4.9-0.1,9.8-0.2,14.6
		c-0.1,3.4-1.6,6-4.2,8c-1.7,1.3-3.4,2.6-5.1,3.9c-1.5,1-2.3,2.4-2.5,4.2c-0.1,0.7-0.4,1.5-0.2,2.1c0.3,0.6,1.3,0.4,1.9,0.6
		c1.8,0.5,2.7,1.8,2.4,3.7c-0.3,2.1-0.7,4.1-1,6.2c-0.2,1.5-0.8,2.5-2.2,3.1C82.3,97.5,81.6,97.5,80.8,97.5z M60.5,79
		c0,1.8,0,1.8,1.3,2c5.2,0.8,10.5,1.6,15.7,2.5c1.3,0.2,1.4,0.2,1.5-1.1c0.3-3.1,1.6-5.6,4.3-7.4c2-1.3,3.9-2.7,5.7-4.4
		c1.3-1.3,2-2.9,2-4.7c0.1-3.3,0.1-6.5,0.2-9.8c0.1-6.5,0.1-13.1,0.3-19.6c0-1.4,0-2.7-0.1-4.1c-0.1-1.6-1-2.4-2.6-2.4
		c-1.5,0-2.2,0.8-2.3,2.3c-0.3,3.3-0.7,6.6-1,9.9c-0.3,3.2-0.7,6.4-1,9.6c-0.1,0.7,0.1,1.3,0.6,1.8c2,2.1,2.3,5,0.7,7.5
		c-0.6,0.9-1.4,1.7-2.2,2.4c-2.5,1.9-5,3.7-7.6,5.6c-0.3,0.2-0.6,0.5-0.9,0.6c-0.7,0.4-1.3,0.3-1.8-0.3c-0.5-0.6-0.4-1.3,0.1-1.9
		c0.2-0.2,0.4-0.4,0.6-0.5c2.5-1.9,5-3.7,7.6-5.6c0.6-0.4,1.2-0.9,1.6-1.5c1.2-1.6,0.9-3.7-0.8-4.9c-1.5-1-3.3-0.9-5,0.4
		c-4.5,3.3-9.1,6.7-13.6,10c-1.4,1-2.2,2.4-2.5,4.1C60.8,72.9,60.9,76.1,60.5,79z M56.5,83c-0.5,0-0.9,0-1,0.6
		c-0.3,2-0.6,3.9-0.9,5.9c-0.1,0.8,0.2,1,1,1.1c4.1,0.6,8.3,1.3,12.4,2c4.4,0.7,8.8,1.4,13.1,2.1c1.2,0.2,1.2,0.2,1.4-1.1
		c0.3-1.7,0.5-3.3,0.8-5c0.2-1.3,0.2-1.3-1-1.5c-6.1-1-12.3-1.9-18.4-2.9C61.3,83.8,58.9,83.4,56.5,83z"/>
	<path class="st1" d="M44.4,87.2c0,0.8-0.7,1.4-1.4,1.4c-0.8,0-1.4-0.6-1.4-1.4c0-0.8,0.7-1.4,1.5-1.4
		C43.8,85.8,44.4,86.5,44.4,87.2z"/>
	<path class="st1" d="M58.6,85.8c0.8,0,1.4,0.6,1.4,1.4c0,0.8-0.6,1.4-1.4,1.3c-0.8,0-1.4-0.7-1.4-1.4
		C57.2,86.5,57.9,85.8,58.6,85.8z"/>
</g>
</svg>
