<svg id="Layer_1" data-name="Layer 1" xmlns="http://www.w3.org/2000/svg" viewBox="0 0 19 19"><defs><style>.cls-1{fill:#fff;}</style></defs><title>inst</title><path class="cls-1" d="M9.50015,7.61355a1.844,1.844,0,1,0,.70555.14036A1.84385,1.84385,0,0,0,9.50015,7.61355Zm7.38265-1.8215a4.8551,4.8551,0,0,0-.3122-1.68025A2.97424,2.97424,0,0,0,14.8457,2.387a4.85455,4.85455,0,0,0-1.6802-.31226c-.9591-.052-1.2416-.052-3.66535-.052s-2.70624,0-3.66532.052A4.85464,4.85464,0,0,0,4.15459,2.387,2.97388,2.97388,0,0,0,2.42973,4.1118a4.85493,4.85493,0,0,0-.31226,1.68025c-.052.95908-.052,1.2416-.052,3.66532s0,2.70623.052,3.66533a5.101,5.101,0,0,0,.31226,1.6877,2.92889,2.92889,0,0,0,.67656,1.0408,2.89275,2.89275,0,0,0,1.0483.6766,4.855,4.855,0,0,0,1.68024.3122c.95908.0521,1.2416.0521,3.66532.0521s2.70625,0,3.66535-.0521a4.855,4.855,0,0,0,1.6802-.3122,2.89233,2.89233,0,0,0,1.0483-.6766,2.92926,2.92926,0,0,0,.6766-1.0408,4.90732,4.90732,0,0,0,.3122-1.6877c.0521-.9591.0521-1.2416.0521-3.66533S16.9349,6.75113,16.8828,5.79205ZM14.9944,11.7398a4.26131,4.26131,0,0,1-.2899,1.3383,2.87066,2.87066,0,0,1-1.5836,1.5836,4.26241,4.26241,0,0,1-1.3457.2602H7.22513a4.26186,4.26186,0,0,1-1.34569-.2602,2.76761,2.76761,0,0,1-1.58359-1.5836,4.08173,4.08173,0,0,1-.25278-1.3457V7.18234a4.08122,4.08122,0,0,1,.25278-1.34568,2.60942,2.60942,0,0,1,.63938-.974,2.669,2.669,0,0,1,.94421-.60965,4.25992,4.25992,0,0,1,1.34569-.26021H11.7752a4.26047,4.26047,0,0,1,1.3457.26021,2.768,2.768,0,0,1,1.5836,1.5836,4.26175,4.26175,0,0,1,.2602,1.34568v2.275c0,1.53153.052,1.68763.0297,2.275ZM13.8049,6.20839A1.76963,1.76963,0,0,0,12.7566,5.1601a2.97417,2.97417,0,0,0-1.026-.16357H7.26973a2.97379,2.97379,0,0,0-1.026.19331A1.76945,1.76945,0,0,0,5.19545,6.201a3.17451,3.17451,0,0,0-.15613,1.026V11.6878a3.175,3.175,0,0,0,.1933,1.026,1.76968,1.76968,0,0,0,1.0483,1.0483,3.17671,3.17671,0,0,0,.98881.1933H11.7306a2.9768,2.9768,0,0,0,1.026-.1933,1.76989,1.76989,0,0,0,1.0483-1.0483,2.9768,2.9768,0,0,0,.1933-1.026V7.227a2.81172,2.81172,0,0,0-.1933-1.026Zm-4.30475,6.089a2.84006,2.84006,0,1,1,1.57985-.475A2.833,2.833,0,0,1,9.50015,12.2974ZM12.474,7.17491a.66914.66914,0,0,1,0-1.33082.66913.66913,0,0,1,0,1.33082Z"/></svg>