<?xml version="1.0" encoding="utf-8"?>
<!-- Generator: Adobe Illustrator 18.1.1, SVG Export Plug-In . SVG Version: 6.00 Build 0)  -->
<svg version="1.1" id="Layer_1" xmlns="http://www.w3.org/2000/svg" xmlns:xlink="http://www.w3.org/1999/xlink" x="0px" y="0px"
	 viewBox="0 0 100 100" style="enable-background:new 0 0 100 100;" xml:space="preserve">
<style type="text/css">
	.st0{fill:#B30920;}
</style>
<title>Integrity-and-Ethics</title>
<g>
	<path class="st0" d="M61.3,0.4c-4,1.2-7.1,4.3-8.2,8.3c-0.2,0.7-0.3,1.4-0.3,2.1v0.9h-6.2c-4.1-0.2-8.2,0.1-12.2,1
		c-6.6,1.5-12.8,4.6-18.1,8.8c-7,5.7-12.1,13.4-14.6,22.1c-1.1,3.6-1.6,7.3-1.6,11c-0.1,2,0,4.1,0.1,6.1
		c2.3,20.2,18.1,36.2,38.2,38.9c3.8,0.4,7.5,0.4,11.3,0c12.9-1.7,24.3-8.9,31.4-19.8c2.8-4.4,4.8-9.3,6-14.3c0.8-4,1.2-8.1,1-12.2
		V47H89c2.8-0.2,5.4-1.4,7.4-3.4c2.3-2.2,3.5-5.2,3.4-8.3c0.1-3.1-1.1-6.1-3.4-8.3c-2-2-4.6-3.2-7.4-3.4h-0.9V11.7H76.2v-0.9
		c0-0.7-0.1-1.4-0.3-2.1c-1.1-4.1-4.3-7.3-8.4-8.4C65.5-0.1,63.4-0.1,61.3,0.4z M66.6,6.4C67.9,7,69,8,69.7,9.3
		c0.3,0.7,0.4,1.3,0.4,2c0,1.3-0.2,2.6-0.8,3.7l-0.9,2.5h13.8v13.8l2.5-0.9c1.2-0.6,2.4-0.9,3.7-0.8c1.4,0,2.7,0.6,3.6,1.6
		c1.1,1,1.7,2.5,1.6,4c0.2,1.5-0.4,3-1.6,4c-0.9,1-2.2,1.6-3.6,1.6c-1.3,0-2.6-0.2-3.7-0.8l-2.5-0.9v13.6h-6.8
		c-3.7,0-6.8,0.1-6.8,0.2c0,0.1,0.4,1.2,0.8,2.4c0.5,1.1,0.8,2.3,0.7,3.6c0,1.4-0.6,2.7-1.6,3.7c-1,1.1-2.5,1.7-4,1.6
		c-1.5,0.2-3-0.4-4-1.6c-1-1-1.6-2.3-1.6-3.7c-0.1-1.2,0.2-2.5,0.7-3.6c0.4-1.2,0.8-2.3,0.8-2.4c0-0.1-3-0.2-6.7-0.2H47V47h0.9
		c2.8-0.2,5.4-1.4,7.4-3.4c2.3-2.2,3.5-5.2,3.4-8.3c0.1-3.1-1.1-6.1-3.4-8.3c-2-2-4.6-3.2-7.4-3.4H47v-6h13.6l-0.9-2.5
		c-0.5-1.1-0.8-2.3-0.9-3.5c0-3.1,2.6-5.7,5.7-5.6C65.3,6,65.9,6.1,66.6,6.4z M41.1,24.5c0,3.7,0.1,6.7,0.2,6.7
		c0.1,0,1.2-0.4,2.4-0.8c1.1-0.5,2.3-0.8,3.6-0.7c1.4,0,2.7,0.6,3.7,1.6c1.1,1,1.7,2.5,1.6,4c0.2,1.5-0.4,3-1.6,4
		c-1,1-2.3,1.6-3.7,1.6c-1.2,0.1-2.5-0.2-3.6-0.7c-1.2-0.4-2.3-0.8-2.4-0.8c-0.1,0-0.2,3-0.2,6.7v6.7h-5.8v-0.9
		c-0.2-2.8-1.4-5.4-3.4-7.4c-2.2-2.3-5.2-3.5-8.3-3.4c-3.1-0.1-6.1,1.1-8.3,3.4c-2,2-3.2,4.6-3.4,7.4v0.9H6l0.1-0.9
		C8,34.5,21.4,20.6,38.6,18.1c1-0.2,2-0.3,2.2-0.3C41.1,17.7,41.1,18.2,41.1,24.5z M25.6,47.5c1.3,0.6,2.4,1.6,3.1,2.9
		c0.3,0.7,0.4,1.4,0.4,2.1c0.1,1.2-0.2,2.5-0.7,3.6c-0.4,1.2-0.8,2.3-0.8,2.4c0,0.1,3,0.2,6.7,0.2h6.7v5.8h-0.9
		c-2.8,0.2-5.4,1.4-7.4,3.4c-4.5,4.6-4.5,12,0,16.6c2,2,4.6,3.2,7.4,3.4h0.9v2.9c0,1,0,2-0.1,2.9c-0.1,0-1.1-0.1-2.2-0.3
		C27.3,91.8,17.1,85,11.2,74.9C8.5,70.2,6.7,65,6.1,59.6L6,58.7h6.7c3.7,0,6.7-0.1,6.7-0.2c0-0.1-0.4-1.2-0.8-2.4
		c-1.2-3.3-1-5.2,0.5-7C20.8,47.4,23.4,46.7,25.6,47.5z M52.8,59.6c0.5,6.1,5.6,10.8,11.7,10.8c3.1,0.1,6.1-1.1,8.3-3.4
		c2-2,3.2-4.6,3.4-7.4v-0.9h2.9c1,0,2,0,2.9,0.1c0,0.1-0.1,1.1-0.3,2.2c-2.4,16.8-15.7,30.1-32.5,32.5c-1.1,0.2-2.1,0.3-2.2,0.3
		c-0.1,0-0.2-3-0.2-6.7c0-3.7-0.1-6.7-0.2-6.7c-0.1,0-1.2,0.4-2.4,0.8c-1.1,0.5-2.3,0.8-3.6,0.7c-2.9-0.1-5.2-2.4-5.3-5.3
		c-0.2-1.6,0.4-3.2,1.6-4.3c1.9-1.9,3.9-2.1,7.3-0.9c1.2,0.4,2.3,0.8,2.4,0.8c0.1,0,0.2-3,0.2-6.7v-6.7h5.8V59.6z"/>
</g>
</svg>
