<svg id="Layer_1" data-name="Layer 1" xmlns="http://www.w3.org/2000/svg" viewBox="0 0 19 19"><defs><style>.cls-1{fill:#fff;}</style></defs><title>in</title><path class="cls-1" d="M2.73645,16.0113h1.881a.46791.46791,0,0,0,.46986-.466V7.39121a.4679.4679,0,0,0-.46986-.466h-1.881a.46788.46788,0,0,0-.46985.466V15.5453A.46789.46789,0,0,0,2.73645,16.0113Z"/><path class="cls-1" d="M2.73645,5.49151h1.881a.46792.46792,0,0,0,.46986-.466V3.36894a.46792.46792,0,0,0-.46986-.466h-1.881a.4679.4679,0,0,0-.46985.466V5.02552A.4679.4679,0,0,0,2.73645,5.49151Z"/><path class="cls-1" d="M16.0257,7.87138a2.85857,2.85857,0,0,0-1.1694-.85125,4.26483,4.26483,0,0,0-1.7066-.33348A4.1947,4.1947,0,0,0,9.938,8.12146c-.17464.19034-.30162.14872-.30162-.10867v-.6212a.46792.46792,0,0,0-.46988-.466H7.48621a.46788.46788,0,0,0-.46985.466V15.5457a.46791.46791,0,0,0,.46985.466h1.881a.46789.46789,0,0,0,.46985-.466V12.7099a9.0495,9.0495,0,0,1,.21583-2.4292,2.00787,2.00787,0,0,1,.798-1.05521,2.27522,2.27522,0,0,1,1.3151-.39831,1.68853,1.68853,0,0,1,.9788.27884,1.55447,1.55447,0,0,1,.5872.7815,8.26611,8.26611,0,0,1,.1808,2.21518v3.443a.46787.46787,0,0,0,.4698.466h1.881a.46787.46787,0,0,0,.4698-.466V10.9279a8.67769,8.67769,0,0,0-.1555-1.88162A3.06977,3.06977,0,0,0,16.0257,7.87138Z"/></svg>