<svg id="Layer_1" data-name="Layer 1" xmlns="http://www.w3.org/2000/svg" viewBox="0 0 18 15"><defs><style>.cls-1{fill:#fff;stroke:#000;stroke-width:0.2px;}</style></defs><title>mail</title><path class="cls-1" d="M4.48449,1.46567H4.48431a2.43878,2.43878,0,0,0-1.24313.33779,2.04176,2.04176,0,0,0-.82147.90026l-.03061.06744.05559.04894L7.88165,7.607l.00015.00014a2.44554,2.44554,0,0,0,3.145,0l.0001-.00014,5.437-4.78688.0556-.04894-.0306-.06744a2.04183,2.04183,0,0,0-.8215-.90026,2.4387,2.4387,0,0,0-1.2431-.33779H4.48449ZM2.42063,4.30309,2.25457,4.157V10.9407a1.86888,1.86888,0,0,0,.65776,1.4009,2.3855,2.3855,0,0,0,1.57216.5741H14.4241a2.38515,2.38515,0,0,0,1.5721-.5741,1.86889,1.86889,0,0,0,.6578-1.4009V4.157l-.1661.14608L11.8988,8.34053a3.80559,3.80559,0,0,1-4.889,0Zm-.379-2.996A3.71307,3.71307,0,0,1,4.48459.41567H14.424a3.71315,3.71315,0,0,1,2.4429.89145,2.85215,2.85215,0,0,1,1.007,2.13369V10.9405a2.85205,2.85205,0,0,1-1.007,2.1337,3.71313,3.71313,0,0,1-2.4429.8915H4.48459a3.713,3.713,0,0,1-2.44291-.8915,2.85221,2.85221,0,0,1-1.007-2.1337V3.44075A2.85232,2.85232,0,0,1,2.04168,1.30712Z"/></svg>