<?xml version="1.0" encoding="utf-8"?>
<!-- Generator: Adobe Illustrator 18.1.1, SVG Export Plug-In . SVG Version: 6.00 Build 0)  -->
<svg version="1.1" id="Layer_1" xmlns="http://www.w3.org/2000/svg" xmlns:xlink="http://www.w3.org/1999/xlink" x="0px" y="0px"
	 viewBox="0 0 100 100" style="enable-background:new 0 0 100 100;" xml:space="preserve">
<style type="text/css">
	.st0{fill:#FFFFFF;}
</style>
<g>
	<path class="st0" d="M50,97.6c-8.8,0-17.6,0-26.4,0c-1.3,0-1.3,0-1.3-1.3c0-4.7,0-9.4,0-14.1c0-1.4,0.1-2.7,0.5-4.1
		c0.2-0.5,0.1-1-0.3-1.4c-5.4-6.4-8.1-13.8-7.9-22.1c0-1.8,0.3-1.7-1.7-2c-1-0.2-2.1-0.3-3.1-0.5c-3.2-0.6-5.1-3.7-4.2-6.7
		c0.6-1.9,2.3-3.2,4.3-3.2c2.8,0,5.6,0,8.3,0c4.6,0.1,8.7,4.1,8.7,8.7c0.1,5.7,1.7,10.8,5.1,15.4c0.5,0.6,0.8,0.7,1.6,0.5
		c2.6-0.8,5.3-0.9,7.9-1.3c0.7-0.1,0.9-0.4,1.1-1c0.5-1.6,0.7-2.8-1-4c-1.7-1.2-2.7-3.1-3.4-5.1c-0.2-0.5-0.4-0.8-1.1-0.9
		c-2.5-0.2-4.7-1.9-5.5-4.3c-0.8-2.4,0-5.1,2-6.6c0.6-0.5,0.9-1,0.8-1.8c-0.2-3.8,0.8-7.3,3.3-10.2c2.7-3.1,6.1-4.7,10.2-4.8
		c2.7,0,5.4-0.2,8,0.7c5.5,2,9.3,7.1,9.3,13c0,0.2,0,0.3,0,0.5c-0.1,1.2,0.2,2.1,1.2,3c1.9,1.7,2.4,4.1,1.5,6.5
		c-0.9,2.4-2.7,3.8-5.3,4.1c-0.6,0.1-0.9,0.2-1.1,0.8c-0.8,2.5-2.4,4.5-4.5,6.1c-0.5,0.3-0.6,0.7-0.4,1.2c0.6,2.6,0.6,2.6,3.2,3
		c2.3,0.4,4.6,0.5,6.8,1.3c0.4,0.1,0.6-0.1,0.8-0.3c3-3.8,4.8-8.1,5.2-13c0.1-1.4,0.1-2.8,0.4-4.2c0.9-4.3,4.5-7.2,8.9-7.3
		c2.5,0,4.9,0.1,7.4,0c3.3-0.1,4.9,2.2,5.1,4.1c0.3,2.8-1.6,5.2-4.4,5.8c-1.2,0.2-2.5,0.5-3.7,0.6c-0.9,0.1-1.2,0.4-1.2,1.3
		c0.2,4.9-0.6,9.5-2.5,14c-1.3,3.1-3,6-5.2,8.5c-0.5,0.5-0.6,1-0.4,1.7c0.4,1.3,0.5,2.6,0.5,3.9c0,4.7,0,9.4,0,14.1
		c0,1.3,0,1.3-1.3,1.3C67.6,97.6,58.8,97.6,50,97.6z M41.6,94.4c2,0,4,0,5.9,0c0.6,0,1-0.2,0.9-0.9c0-0.2,0-0.4,0-0.7
		c0.3-2.7-0.5-5-2-7.3c-3.3-5-6.3-10.1-9.4-15.1c-0.3-0.4-0.5-0.8-1.2-0.7c-5.2,0.9-9.7,5.8-10.2,11.1c-0.4,4.3-0.1,8.6-0.2,12.8
		c0,0.6,0.3,0.8,0.9,0.8c1.4,0,2.7,0,4.1,0c0.8,0,1.1-0.2,1-1c0-3.6,0-7.2,0-10.8c0-2.2-0.3-1.9,2-2c1,0,1.2,0.4,1.2,1.3
		c0,3.8,0,7.6,0,11.4c0,0.9,0.3,1.2,1.2,1.2C37.8,94.4,39.7,94.4,41.6,94.4z M68.5,87.5c0,2,0,4,0,6c0,0.7,0.2,0.9,0.9,0.9
		c1.5,0,2.9,0,4.4,0c0.5,0,0.7-0.2,0.7-0.8c-0.1-4.2,0.2-8.4-0.2-12.6c-0.4-5.4-4.6-10.1-9.8-11.3c-0.8-0.2-1.2,0-1.5,0.7
		c-3,4.9-5.9,9.9-9.1,14.7c-1.7,2.5-2.6,5.1-2.2,8.1c0,0,0,0.1,0,0.1c-0.1,0.8,0.2,1,1,1c3.9,0,7.7,0,11.6,0c0.9,0,1.1-0.3,1.1-1.1
		c0-3.5,0-7,0-10.5c0-2.5-0.4-2.1,2.3-2.2c0.7,0,0.9,0.3,0.9,1C68.5,83.5,68.5,85.5,68.5,87.5z M50,30.1c-0.4,0-0.8,0-1.2,0
		c-6.4,0.1-11.1,4.8-11.1,11.2c0,0.7,0.2,1,1,1c1.8,0,3.6,0,5.5,0c3.2-0.1,5.7-1.3,7.6-4c0.3-0.4,0.5-0.8,0.8-1.2
		c0.3-0.5,0.6-0.6,1,0c0.5,0.8,1,1.5,1.6,2.3c1.6,2.2,3.8,2.9,6.3,2.9c0.5,0,0.7-0.2,0.7-0.7c0-2.9-0.7-5.6-2.7-7.8
		C57,30.9,53.7,30,50,30.1z M59.1,48.8c0-0.9,0-1.8,0-2.7c0-0.5-0.2-0.8-0.7-0.9c-1.9-0.4-3.5-1.3-4.9-2.7c-0.5-0.5-0.7-0.4-1.2,0
		c-1.7,1.5-3.8,2.5-6.1,2.8c-1.5,0.2-3,0.1-4.5,0.1c-0.6,0-0.9,0.2-0.9,0.9c0,1.7,0,3.4,0,5.1c0.2,6.3,5.4,9.9,10.5,9.1
		c3.7-0.5,7.1-3.9,7.6-7.6C59.1,51.6,59.1,50.2,59.1,48.8z M24.2,58c-1.9,0.3-3.7,0.6-5.4,0.9c-0.6,0.1-0.6,0.5-0.5,1
		c0.8,5,2.7,9.6,5.8,13.7c0.3,0.4,0.5,0.5,0.8,0c1.1-1.8,2.6-3.3,4.4-4.5c0.4-0.3,0.5-0.5,0.2-0.9c-2.2-2.9-3.7-6.1-4.7-9.6
		C24.7,58.2,24.6,57.9,24.2,58z M81.7,59.9c0.1-0.8-0.2-1-0.7-1c-1.6-0.3-3.3-0.5-4.9-0.8c-0.6-0.1-0.8,0.1-1,0.7
		c-0.9,3.4-2.4,6.5-4.5,9.2c-0.4,0.6-0.3,0.8,0.2,1.2c1.7,1.1,3,2.6,4.1,4.2c0.4,0.7,0.6,0.6,1.1,0c1.6-2.2,3-4.5,4-7.1
		C80.9,64.2,81.4,62,81.7,59.9z M8.7,47c0,1,0.8,1.8,2.1,2c1.5,0.3,3.1,0.5,4.6,0.8c1.5,0.3,2.4,1.5,2.4,3c0,0.7,0,1.5,0,2.2
		c0,0.4,0.1,0.7,0.6,0.7c1.7-0.3,3.4-0.6,5.1-0.9c0.4-0.1,0.5-0.3,0.5-0.7c-0.1-0.8-0.1-1.7-0.1-2.5c-0.2-3.4-2.1-5.8-5.5-6.1
		c-2.7-0.2-5.5-0.1-8.2-0.1C9.3,45.5,8.7,46.2,8.7,47z M76.1,54.1c-0.2,0.6,0.2,0.7,0.6,0.7c1.4,0.2,2.8,0.5,4.1,0.7
		c1.4,0.2,1.3,0.2,1.4-1.1c0-0.9-0.2-1.8,0.2-2.7c0.5-1.4,1.7-1.9,3.1-2.1c1.5-0.2,3-0.4,4.4-0.8c1-0.2,1.6-1.2,1.5-2.1
		c-0.1-0.8-0.8-1.3-1.9-1.3c-2.4,0-4.7,0-7.1,0c-3.3,0.1-5.6,2.1-6.1,5.4C76.1,51.9,76.1,53,76.1,54.1z M54.1,65.7
		c-0.1-0.4-0.2-0.9-0.3-1.4c-0.1-0.7-0.4-0.9-1.1-0.7c-1.7,0.4-3.5,0.4-5.2,0c-0.9-0.2-1.2,0.1-1.3,0.9c0,0.3-0.1,0.5-0.2,0.7
		c-0.3,0.7-0.1,1.2,0.5,1.6c1,0.7,1.9,1.4,2.8,2.1c0.4,0.4,0.8,0.4,1.3,0c1-0.8,2-1.5,3-2.2C53.9,66.5,54.2,66.3,54.1,65.7z
		 M43,68.7c-0.7,0.1-1.4,0.3-2.2,0.3c-0.5,0.1-0.7,0.2-0.4,0.7c0.7,1.2,1.5,2.3,2.2,3.5c0.2,0.4,0.5,0.5,0.9,0.2c1-0.6,2-1.2,3-1.8
		c0.6-0.3,0.4-0.5,0-0.8c-0.9-0.6-1.7-1.3-2.5-1.9C43.7,68.8,43.4,68.6,43,68.7z M59.8,69.3c0,0-0.1-0.1-0.1-0.2
		c-0.3-0.3-3.1-0.4-3.4-0.2c-0.9,0.7-1.8,1.4-2.8,2.1c-0.4,0.3-0.4,0.5,0,0.7c1,0.6,2,1.2,3,1.8c0.2,0.1,0.5,0.3,0.7,0
		c0.9-1.3,1.7-2.7,2.5-4.1C59.7,69.4,59.7,69.4,59.8,69.3z M37.7,48.6c0-0.8,0-1.6,0-2.4c0-0.5-0.2-0.7-0.7-0.5
		c-1.2,0.3-2.2,1.5-2.2,2.8c0,1.2,1,2.6,2.1,2.9c0.5,0.1,0.8,0.1,0.8-0.5C37.6,50,37.7,49.3,37.7,48.6z M62.4,48.5
		c0,0.8,0,1.6,0,2.4c0,0.4,0.1,0.6,0.6,0.5c1.1-0.2,2.3-1.5,2.3-2.8c0-1.3-1.1-2.7-2.3-2.9c-0.4-0.1-0.6,0-0.6,0.5
		C62.4,46.9,62.4,47.7,62.4,48.5z M50.2,78.6c-0.1,0-0.2,0-0.3,0c-0.3,1.2-0.6,2.5-1,3.6c-0.4,1.1,0.4,1.8,0.9,2.6
		c0.1,0.2,0.3,0.2,0.4,0c0.4-0.7,1.2-1.2,1-2.1C50.9,81.4,50.5,80,50.2,78.6z M47.4,75c-0.9,0.5-1.6,0.9-2.2,1.3
		c-0.2,0.1-0.4,0.3-0.3,0.6c0.4,0.7,0.8,1.4,1.4,2.1C46.7,77.7,47,76.4,47.4,75z M53.7,79.2c0.5-0.9,0.9-1.5,1.3-2.1
		c0.1-0.2,0.3-0.5,0-0.7c-0.7-0.5-1.4-1-2.4-1.3C53,76.5,53.3,77.7,53.7,79.2z"/>
	<path class="st0" d="M24,17.8c0.1,2.6-0.8,4.8-2.4,6.8c-0.5,0.7-1,1.3-1.5,2c-1.6,2.4-2.5,5-2.3,8c0.1,2.2-1.3,3.9-3.4,4.5
		c-2.9,0.8-6-1.3-5.8-4.3c0.2-4-1.4-7.1-3.7-10.1C-0.4,18,3,8.8,11.3,7.1C17.8,5.8,24,11.1,24,17.8z M11.3,29.8c0.1,0,0.2,0,0.3,0
		c0-1.1,0-2.1,0-3.2c0-0.8-0.2-1.4-1-1.8c-2-1.2-2.7-3.7-1.7-5.9c0.9-2.1,3.3-3.1,5.5-2.5c1.9,0.5,3,1.8,3.3,3.7
		c0.3,2-0.4,3.6-2.1,4.7c-0.3,0.2-0.9,0.3-0.9,0.8c0,1.4,0,2.8,0,4.2c1.1-3,2.9-5.4,4.7-7.9c1.7-2.4,1.7-5.1,0.3-7.7
		c-1.4-2.6-3.7-3.9-6.7-3.9c-2.9,0-5.2,1.4-6.5,4c-1.4,2.6-1.4,5.3,0.3,7.7C8.7,24.4,10.4,26.9,11.3,29.8z M13.3,33.2
		c-1.6,0-1.6,0-1.6,0.9c0,1.2,0.6,2,1.5,2c0.9,0,1.4-0.8,1.5-2C14.7,32.8,13.8,33.3,13.3,33.2z M13.2,19.4c-0.7,0-1.4,0.7-1.4,1.4
		c0,0.7,0.7,1.4,1.4,1.4c0.7,0,1.4-0.7,1.4-1.4C14.6,20.1,13.9,19.4,13.2,19.4z"/>
	<path class="st0" d="M95.3,17.9c-0.3,0.7-0.8,1.5-1.2,2.4c-0.6,1.2-0.6,1.2,0.7,1.6c2.8,0.9,2.8,0.9,2.8,3.8c0,2.5,0,2.5-2.4,3.4
		c-1.6,0.5-1.6,0.5-0.8,2c1.2,2.4,1.2,2.4-0.8,4.3c-1.9,1.9-1.9,1.9-4.3,0.7c-0.2-0.1-0.5-0.2-0.7-0.3c-0.5-0.3-0.8-0.1-1,0.4
		c-0.3,0.8-0.6,1.6-0.8,2.5c-0.2,0.5-0.4,0.8-1,0.8c-1.3,0-2.7,0-4,0c-0.5,0-0.8-0.2-0.9-0.7c-0.2-0.8-0.5-1.5-0.7-2.3
		c-0.2-0.8-0.6-1.1-1.4-0.6c-0.7,0.4-1.4,0.7-2.1,1.1c-0.5,0.3-0.9,0.3-1.3-0.2c-0.9-0.9-1.8-1.9-2.8-2.8c-0.4-0.4-0.4-0.7-0.2-1.2
		c0.4-0.8,0.8-1.6,1.2-2.4c0.3-0.6,0.2-0.9-0.4-1.1c-0.9-0.3-1.7-0.6-2.5-0.8c-0.5-0.1-0.7-0.4-0.7-0.9c0-1.3,0-2.7,0-4
		c0-0.6,0.3-0.9,0.8-1c0.8-0.2,1.6-0.6,2.5-0.8c0.6-0.2,0.7-0.5,0.4-1c-0.4-0.8-0.8-1.7-1.2-2.5c-0.2-0.4-0.2-0.8,0.2-1.1
		c1-0.9,1.9-1.9,2.8-2.8c0.4-0.4,0.7-0.4,1.2-0.2c0.7,0.4,1.4,0.7,2.1,1c1.1,0.5,1.1,0.5,1.5-0.6c0.2-0.7,0.5-1.4,0.7-2.1
		c0.2-0.6,0.5-0.8,1.1-0.8c1.3,0,2.6,0,3.8,0c0.6,0,0.9,0.2,1.1,0.8c0.2,0.8,0.5,1.6,0.8,2.4c0.2,0.6,0.5,0.8,1.1,0.5
		c0.8-0.4,1.6-0.7,2.3-1.1c0.5-0.3,0.9-0.3,1.3,0.2c0.9,0.9,1.8,1.8,2.7,2.7C95.2,17.2,95.4,17.4,95.3,17.9z M88.1,32.1
		c0.7,0,1.4,0.3,2,0.6c0.4,0.1,0.7,0.6,1.1,0.2c0.4-0.4,0-0.8-0.2-1.1c-0.7-1.2-0.8-2.4-0.2-3.7c0.5-1.1,1.4-1.7,2.6-2
		c0.4-0.1,1-0.1,1-0.7c0-0.5-0.6-0.5-1-0.6c-0.8-0.3-1.6-0.6-2.2-1.3c-1-1.3-1.1-2.7-0.3-4.2c0.2-0.4,0.6-0.8,0.3-1.2
		c-0.4-0.5-0.9,0-1.3,0.2c-1.1,0.6-2.2,0.7-3.3,0.2c-1.3-0.5-1.9-1.5-2.2-2.8c-0.1-0.3-0.1-0.8-0.6-0.8c-0.5,0-0.5,0.5-0.6,0.8
		c-1,3-2.9,3.8-5.7,2.5C77,18,76.7,17.6,76.3,18c-0.3,0.4,0,0.7,0.2,1c1.5,2.4,0,5.3-2.4,5.7c-0.4,0.1-0.9,0.1-0.9,0.6
		c0,0.6,0.6,0.6,1,0.7c1.3,0.4,2.2,1.1,2.7,2.4c0.4,1.1,0.2,2.2-0.3,3.2c-0.2,0.4-0.6,0.8-0.2,1.2c0.4,0.4,0.8-0.1,1.2-0.2
		c0.1,0,0.1-0.1,0.2-0.1c2.3-1.1,4.4-0.1,5.3,2.2c0.2,0.5,0.1,1.2,0.7,1.2c0.7,0,0.6-0.8,0.8-1.2C85.1,33.1,86.4,32.1,88.1,32.1z"/>
	<path class="st0" d="M50,2.4c3.5,0,7,0,10.4,0c2.2,0,3.4,1.2,3.4,3.5c0,2.9,0,5.8,0,8.6c0,2.2-1.2,3.4-3.4,3.4c-2.8,0-5.7,0-8.5,0
		c-0.7,0-1.1,0.2-1.3,0.8c-0.5,1.1-1.1,2.2-1.6,3.3c-0.9,1.7-2.5,2.4-4.2,2c-1.6-0.4-2.6-1.8-2.6-3.6c0-2.4,0-2.4-2.5-2.5
		c-2.5,0-3.7-1.1-3.7-3.7c0-2.8,0-5.6,0-8.4c0-2.1,1.2-3.3,3.3-3.3C43,2.4,46.5,2.4,50,2.4z M54.8,14.6c1.7,0,3.3,0,5,0
		c0.7,0,0.9-0.2,0.9-0.9c0-2.4,0-4.8,0-7.2c0-0.7-0.2-1-0.9-1c-6.5,0-13,0-19.5,0c-0.6,0-0.9,0.2-0.9,0.9c0,2.5,0,4.9,0,7.4
		c0,0.7,0.3,0.9,0.9,0.9c1.4,0,2.7,0,4.1,0c0.9,0,1.2,0.3,1.1,1.2c-0.1,1.3,0,2.6,0,3.9c0,0.3-0.1,0.7,0.2,0.8
		c0.4,0.1,0.5-0.3,0.6-0.6c0.8-1.5,1.5-3,2.2-4.5c0.3-0.6,0.7-0.8,1.3-0.8C51.5,14.7,53.2,14.6,54.8,14.6z"/>
	<path class="st0" d="M49.2,57.7c-1.7,0-3.6-1.1-4.9-3.2C44,54,44,53.6,44.6,53.3c0.3-0.1,0.5-0.2,0.8-0.4c0.8-0.5,1.4-0.7,2.2,0.4
		c1.3,1.8,3.9,1.6,5.2-0.3c0.4-0.6,0.8-0.7,1.4-0.3c0.2,0.1,0.4,0.2,0.6,0.3c1.5,0.8,1.6,0.9,0.5,2.3C53.9,56.9,52.1,57.8,49.2,57.7
		z"/>
	<path class="st0" d="M47,48.5c0,0.9-0.7,1.6-1.7,1.6c-0.9,0-1.5-0.7-1.5-1.6c0-0.9,0.7-1.6,1.7-1.6C46.4,46.9,47,47.6,47,48.5z"/>
	<path class="st0" d="M54.6,50.1c-0.9,0-1.6-0.7-1.6-1.6c0-0.9,0.7-1.6,1.6-1.6c0.9,0,1.6,0.7,1.6,1.6C56.2,49.4,55.5,50,54.6,50.1z
		"/>
	<path class="st0" d="M88.4,25.4c0,2.6-2,4.7-4.7,4.7c-2.6,0-4.7-2-4.7-4.7c0-2.7,2-4.7,4.7-4.7C86.4,20.8,88.4,22.8,88.4,25.4z
		 M83.8,26.9c0.7,0,1.4-0.7,1.4-1.5c0-0.7-0.7-1.4-1.5-1.4c-0.7,0-1.4,0.7-1.4,1.5C82.4,26.2,83.1,26.9,83.8,26.9z"/>
	<path class="st0" d="M45.5,10.1c0,1.6,0,1.6-1.6,1.6c-1.8,0-1.6,0.1-1.6-1.7c0-1.5,0-1.5,1.7-1.5C45.5,8.5,45.5,8.5,45.5,10.1z"/>
	<path class="st0" d="M50,8.5c1.6,0,1.6,0,1.6,1.6c0,1.6,0,1.6-1.7,1.6c-1.5,0-1.5,0-1.5-1.6C48.4,8.5,48.4,8.5,50,8.5z"/>
	<path class="st0" d="M56.1,11.7c-1.6,0-1.6,0-1.6-1.6c0-1.7-0.1-1.6,1.7-1.6c1.5,0,1.5,0,1.5,1.7C57.7,11.7,57.7,11.7,56.1,11.7z"
		/>
</g>
</svg>
