<?xml version="1.0" encoding="utf-8"?>
<!-- Generator: Adobe Illustrator 18.1.1, SVG Export Plug-In . SVG Version: 6.00 Build 0)  -->
<svg version="1.1" id="Layer_1" xmlns="http://www.w3.org/2000/svg" xmlns:xlink="http://www.w3.org/1999/xlink" x="0px" y="0px"
	 viewBox="0 0 100 100" style="enable-background:new 0 0 100 100;" xml:space="preserve">
<style type="text/css">
	.st0{fill:#FFFFFF;}
</style>
<g>
	<path class="st0" d="M27.9,1.7c1.1,0.6,1.8,1.4,1.7,2.8c0,0.4,0.1,0.6,0.5,0.6c0.3,0,0.6,0,0.8,0c14,0,28,0,42,0c0.4,0,0.8,0,1.1,0
		c1.2,0.1,2.1,1,2.1,2.2c0,1,0,2,0,2.9c0,0.6,0.2,0.8,0.8,0.7c0.9,0,1.8,0,2.7,0c1.4,0,2.3,0.9,2.4,2.4c0,0.3,0,0.7,0,1
		c0,17.6,0,35.3,0,52.9c0,0.8,0.2,1.2,1,1.6c4,1.9,6.7,4.9,8.1,9.1c0.4,1.3,0.2,2.1-0.6,2.4c-0.9,0.3-1.6-0.1-2.1-1.5
		c-1.7-5-6.3-8.5-11.3-8.7C71.7,70,67,73,64.9,78c-2.8,6.7,0.7,14.5,7.6,16.8c6.9,2.3,14.4-1.7,16.3-8.7c0.1-0.3,0.2-0.7,0.3-1
		c0.3-0.7,0.9-1,1.6-0.8c0.8,0.2,1.1,0.7,1.1,1.4c-0.1,0.6-0.2,1.1-0.4,1.6c-2.1,6-6.3,9.6-12.6,10.7c-0.2,0-0.4,0.1-0.6,0.2
		c-1.1,0-2.1,0-3.2,0c-0.2-0.1-0.4-0.1-0.5-0.2c-3.2-0.4-6-1.8-8.4-4c-0.5-0.5-1.1-0.7-1.8-0.7c-14.8,0-29.7,0-44.5,0
		c-0.4,0-0.8,0-1.1,0c-1.4-0.1-2.2-1-2.3-2.3c0-0.9,0-1.8,0-2.7c0-0.6-0.1-0.9-0.8-0.9c-0.9,0.1-1.8,0-2.7,0c-1,0-1.7-0.5-2.1-1.3
		c-0.3-0.6-0.2-1.2-0.2-1.9c0-16.9,0-33.8,0-50.8c0-1.8,0-1.8-1.8-1.8c-2.2,0-3-0.8-3-3.1c0-8,0-16,0-24c0-1.5,0.4-2.5,1.7-3.1
		C14.2,1.7,21.1,1.7,27.9,1.7z M19.2,61.2c0,9.5,0,19,0,28.5c0,0.6,0,1,0.8,1c14.1,0,28.2,0,42.3,0c0.8,0,0.8-0.2,0.5-0.8
		c-1.6-3.1-2-6.4-1.4-9.9c1.4-7.8,9.2-13.6,16.9-12.5c0.9,0.1,1.1,0,1.1-0.9c0-17.2,0-34.5,0-51.7c0-1-0.3-1.1-1.2-1.1
		c-12.3,0-24.7,0-37,0c-0.4,0-0.9,0.1-1.3-0.1c-0.7-0.3-1-0.8-0.9-1.5c0.1-0.7,0.5-1.1,1.2-1.2c0.3-0.1,0.7,0,1,0
		c10.1,0,20.2,0,30.3,0c1.9,0,1.9,0,2-1.9c0-0.9-0.2-1.2-1.2-1.2c-13.5,0-26.9,0-40.4,0c-2.4,0-2.4,0-2.3,2.4c0,0,0,0.1,0,0.1
		c-0.1,0.5,0.2,0.6,0.6,0.6c1.1,0,2.3,0,3.4,0c1,0,1.6,0.6,1.6,1.4c0,0.8-0.6,1.4-1.5,1.4c-1,0-2,0.1-2.9,0
		c-0.8-0.1-1.1,0.2-1.1,1.1c0.1,4.7,0,9.4,0,14.2c0,2-0.9,2.9-2.9,2.9c-2.1,0-4.3,0-6.4,0c-0.9,0-1.1,0.2-1.1,1.1
		C19.2,42.3,19.2,51.8,19.2,61.2z M16.4,58.4c0-8.2,0-16.5,0-24.7c0-1.8,0-1.9-1.8-1.8c-1.4,0-1.3-0.2-1.3,1.3c0,16.5,0,33.1,0,49.6
		c0,2,0,2,2,2.1c0.9,0,1.1-0.2,1.1-1.1C16.3,75.3,16.4,66.8,16.4,58.4z M8.5,23.2c1-1.2,1.9-2.1,3-2.7c0.8-0.4,0.8-0.7,0.3-1.4
		c-1.8-2.5-1.7-5.8,0-8.3c1.8-2.5,5-3.6,8-2.6c2.9,0.9,4.9,3.6,5,6.6c0.1,1.9-0.6,3.6-1.9,5.1c1.5,0.8,2.7,1.9,3.9,3.4
		c0-6.2,0-12.2,0-18.1c0-0.7-0.4-0.6-0.8-0.6c-5.6,0-11.1,0-16.7,0c-0.7,0-0.8,0.2-0.8,0.9c0,3.7,0,7.4,0,11
		C8.5,18.6,8.5,20.8,8.5,23.2z M26.3,29c-0.3-2.9-3.3-6.4-6-7.1c-0.4-0.1-0.7,0-1,0.1c-1.1,0.3-2.2,0.3-3.3,0
		c-0.6-0.1-1-0.1-1.5,0.1c-2.7,1.2-4.4,3.3-5.4,6.1C8.8,28.8,8.9,29,9.6,29c4.1,0,8.2,0,12.3,0C23.4,29,24.8,29,26.3,29z M21.9,15
		c0-2.4-1.9-4.3-4.3-4.3c-2.4,0-4.4,1.9-4.4,4.4c0,2.4,2,4.3,4.3,4.3C20,19.3,21.9,17.4,21.9,15z"/>
	<path class="st0" d="M85.9,33.9c0-6.2,0-12.5,0-18.7c0-3,2.8-5,5.6-4.1c1.7,0.6,2.9,2.1,2.9,3.9c0,5.2,0,10.4,0,15.7
		c0,1-0.6,1.6-1.4,1.6c-0.9,0-1.4-0.6-1.4-1.7c0-4.9,0-9.8,0-14.7c0-0.3,0-0.6,0-0.9c-0.1-0.8-0.6-1.3-1.4-1.3
		c-0.8,0-1.3,0.5-1.4,1.2c0,0.3,0,0.6,0,0.8c0,10.7,0,21.3,0,32c0,0.9,0.2,1.2,1.1,1.2c1.7-0.1,1.8,0,1.8-1.7c0-3.1,0-6.2,0-9.3
		c0-0.8,0.2-1.4,1-1.7c1-0.3,1.8,0.4,1.8,1.5c0,2.3,0,4.7,0,7c0,2.4,0,4.8,0,7.3c0,1.1-0.2,2.1-0.6,3.1c-0.7,1.7-1.3,3.3-1.9,5
		c-0.3,0.9-0.8,1.5-1.8,1.5c-1,0-1.5-0.6-1.8-1.4c-0.7-1.8-1.4-3.6-2-5.4c-0.3-0.9-0.4-1.8-0.4-2.7C85.9,46,85.9,39.9,85.9,33.9z
		 M90.1,56.8c0.5-1.3,0.9-2.4,1.3-3.5c0.4-1.4,0.3-1.5-1.2-1.5c-0.3,0-0.5,0-0.8,0c-0.7-0.1-0.9,0.3-0.8,0.9
		C88.9,54.1,89.6,55.3,90.1,56.8z"/>
	<path class="st0" d="M85,78.7c0,0.4-0.2,0.7-0.5,1c-2.8,2.8-5.7,5.7-8.5,8.5c-0.7,0.7-1.5,0.7-2.2,0c-1.7-1.7-3.4-3.4-5.1-5.1
		C68,82.4,68,81.6,68.5,81c0.6-0.6,1.4-0.6,2.2,0.1c1.2,1.1,2.3,2.3,3.5,3.5c0.5,0.6,0.8,0.7,1.4,0c2.2-2.2,4.4-4.4,6.6-6.6
		c0.2-0.2,0.5-0.5,0.8-0.7C83.9,76.9,84.9,77.6,85,78.7z"/>
	<path class="st0" d="M49.2,51.2c-7.3,0-14.7,0-22,0c-0.3,0-0.7,0-1,0c-0.7-0.1-1.1-0.5-1.2-1.2c-0.1-0.8,0.3-1.3,1-1.5
		c0.3-0.1,0.7-0.1,1-0.1c14.8,0,29.7,0,44.5,0c0.3,0,0.7,0,1,0.1c0.7,0.2,1.1,0.7,1,1.5c-0.1,0.7-0.5,1.1-1.2,1.2c-0.3,0-0.7,0-1,0
		C63.9,51.2,56.6,51.2,49.2,51.2z"/>
	<path class="st0" d="M49.2,44c-7.4,0-14.7,0-22.1,0c-0.4,0-0.8,0-1.1,0c-0.7-0.1-1.1-0.6-1.1-1.2c-0.1-0.7,0.3-1.2,0.9-1.4
		c0.4-0.1,0.7-0.1,1.1-0.1c14.8,0,29.7,0,44.5,0c0.3,0,0.6,0,0.9,0.1c0.7,0.2,1.2,0.7,1.1,1.4c0,0.8-0.5,1.2-1.2,1.3
		c-0.3,0-0.7,0-1,0C64,44,56.6,44,49.2,44z"/>
	<path class="st0" d="M49.2,58.3c-7.4,0-14.8,0-22.2,0c-0.3,0-0.6,0-0.8,0c-0.8-0.1-1.2-0.5-1.3-1.3c-0.1-0.8,0.3-1.3,1-1.5
		c0.3-0.1,0.7-0.1,1-0.1c14.8,0,29.7,0,44.5,0c0.4,0,0.8,0,1.1,0.1c0.7,0.2,1,0.7,1,1.4c-0.1,0.7-0.5,1.2-1.3,1.3
		c-0.3,0-0.6,0-0.9,0C64,58.3,56.6,58.3,49.2,58.3z"/>
	<path class="st0" d="M31.4,66.4c1.4,0,2.8,0,4.2,0c1.5,0,2.3,0.8,2.3,2.3c0,2.1,0,4.2,0,6.3c0,1.5-0.7,2.2-2.3,2.2
		c-2.8,0-5.5,0-8.3,0c-1.6,0-2.3-0.8-2.3-2.3c0-2.1,0-4.2,0-6.2c0-1.5,0.8-2.3,2.2-2.3c0,0,0.1,0,0.1,0C28.6,66.4,30,66.4,31.4,66.4
		z M31.4,69.3c-1,0-2,0-3,0c-0.4,0-0.7,0.1-0.7,0.6c0,1.3,0,2.7,0,4c0,0.4,0.1,0.6,0.5,0.6c2,0,4.1,0,6.1,0c0.4,0,0.6-0.2,0.6-0.6
		c0-1.3,0-2.6,0-4c0-0.5-0.2-0.7-0.7-0.7C33.4,69.3,32.4,69.3,31.4,69.3z"/>
	<path class="st0" d="M49.3,29c3.8,0,7.7,0,11.5,0c0.8,0,1.4,0.2,1.6,1c0.3,0.8-0.2,1.6-1.1,1.8c-0.3,0.1-0.7,0.1-1,0.1
		c-7.4,0-14.7,0-22.1,0c-0.2,0-0.3,0-0.5,0c-1.1,0-1.7-0.6-1.7-1.5c0-0.8,0.7-1.3,1.7-1.3C41.6,29,45.4,29,49.3,29z"/>
	<path class="st0" d="M35.6,83.6c-3,0-5.9,0-8.9,0c-1.2,0-1.8-0.5-1.8-1.4c0-0.9,0.7-1.4,1.8-1.4c5.9,0,11.8,0,17.7,0
		c1.2,0,1.8,0.6,1.8,1.5c0,0.8-0.6,1.4-1.7,1.4C41.6,83.6,38.6,83.6,35.6,83.6z"/>
	<path class="st0" d="M49.3,21.8c2.2,0,4.3,0,6.5,0c1.1,0,1.7,0.5,1.7,1.4c0,0.9-0.6,1.4-1.7,1.4c-4.4,0-8.8,0-13.2,0
		c-1.1,0-1.7-0.5-1.7-1.4c0-0.9,0.6-1.4,1.7-1.4C44.9,21.8,47.1,21.8,49.3,21.8z"/>
</g>
</svg>
