<?xml version="1.0" encoding="utf-8"?>
<!-- Generator: Adobe Illustrator 18.1.1, SVG Export Plug-In . SVG Version: 6.00 Build 0)  -->
<svg version="1.1" id="Layer_1" xmlns="http://www.w3.org/2000/svg" xmlns:xlink="http://www.w3.org/1999/xlink" x="0px" y="0px"
	 viewBox="0 0 100 100" style="enable-background:new 0 0 100 100;" xml:space="preserve">
<style type="text/css">
	.st0{fill:#B30920;}
</style>
<g>
	<path class="st0" d="M38.8,4.8c1.7,0.5,3.3,1.2,4.7,2.4c1.2,1.1,2,2.4,2.5,4c0.2,0.7,0.5,0.8,1.2,0.8c1.4,0,2.7,0,4.1,0
		c1.8,0,2.5,0.8,2.5,2.5c0,1.2,0,1.2,1.2,1.2c2,0.1,4-0.2,5.9,0.2c4.4,0.9,7.5,4.6,7.5,9c0,7.2,0,14.4,0,21.7c0,1.4-0.7,2.3-1.9,2.3
		c-1.2,0-1.9-0.9-1.9-2.3c0-7.1,0-14.3,0-21.4c0-3.2-2.3-5.5-5.5-5.5c-1,0-2.1,0-3.1,0c-2,0-2,0-2.2,1.9c-0.3,3.2-2.6,5.3-5.8,5.3
		c-7.2,0-14.4,0-21.6,0c-3.4,0-5.8-2.4-5.8-5.8c0-0.2,0-0.4,0-0.6c0.1-0.7-0.2-0.9-0.9-0.9c-1.4,0-2.8,0.1-4.2,0
		c-3.1-0.2-5.8,2.6-5.7,5.6c0.1,3.1,0,6.2,0,9.3c0,12.6,0,25.3,0,37.9c0,2.7,1.5,4.7,4,5.4c0.6,0.2,1.3,0.1,2,0.1c8,0,16.1,0,24.1,0
		c0.4,0,0.9,0,1.3,0.1c1,0.2,1.6,1.1,1.6,2c-0.1,1-0.8,1.8-1.9,1.8c-2.3,0-4.5,0-6.8,0c-6.1,0-12.2-0.1-18.3,0
		c-4.9,0.1-8.8-3.2-9.6-7.4c0-0.1-0.1-0.2-0.1-0.2c0-17,0-33.9,0-50.9c0.1-0.2,0.1-0.4,0.2-0.7c1.1-3.9,3.7-6.2,7.6-6.9
		c1.7-0.3,3.5-0.1,5.3-0.1c1.5,0,1.4,0.1,1.4-1.4c0-1.6,0.7-2.3,2.3-2.4c1,0,2-0.1,2.9,0c1.5,0.2,2.4-0.2,3-1.8
		c1.1-3,3.7-4.7,6.8-5.4C36.7,4.8,37.7,4.8,38.8,4.8z M37.2,23c3.6,0,7.1,0,10.7,0c1.4,0,2.1-0.6,2.1-2c0-1.5,0-2.9,0-4.4
		c0-0.6-0.2-0.8-0.8-0.7c-1.4,0-2.8,0-4.2,0c-1.7,0-2.3-0.6-2.4-2.3c-0.2-3.4-3.6-5.8-6.9-4.8c-2.2,0.7-3.7,2.5-3.8,4.8
		c-0.1,1.7-0.8,2.3-2.4,2.3c-1.3,0-2.6,0-4,0c-0.7,0-1,0.2-1,1c0.1,1.3,0,2.7,0,4c0,1.6,0.6,2.2,2.2,2.2C30.1,23,33.7,23,37.2,23z"
		/>
	<path class="st0" d="M94,58.5c-0.5,1.5-1.5,2.6-2.5,3.6C82.5,71.1,73.6,80,64.7,89c-0.8,0.8-1.6,1.2-2.7,1.4
		c-3.8,0.7-7.6,1.5-11.4,2.3c-0.6,0-1.1,0-1.7,0c-1-0.7-1.2-1.7-1-2.9c0.8-3.9,1.6-7.7,2.3-11.6c0.1-0.7,0.4-1.4,1-2
		c9.4-9.3,18.7-18.7,28.1-28.1c2.5-2.5,5.8-2.4,8.3,0c1.5,1.4,2.9,2.9,4.4,4.4c1,1,1.8,2,2.2,3.3C94,56.8,94,57.7,94,58.5z
		 M83.3,50.3c-0.6-0.1-1,0.2-1.4,0.6c-9.2,9.2-18.3,18.3-27.5,27.5c-0.3,0.3-0.5,0.7-0.6,1.1c-0.5,2.7-1,5.4-1.6,8.1
		c-0.1,0.7,0,0.8,0.7,0.7c2.5-0.5,5-1,7.6-1.5c0.8-0.2,1.5-0.5,2-1.1c8.9-8.9,17.7-17.7,26.6-26.6c0.2-0.2,0.4-0.4,0.5-0.6
		c0.7-0.8,0.8-1.8,0-2.6c-1.6-1.7-3.3-3.3-4.9-4.9C84.3,50.6,83.9,50.3,83.3,50.3z"/>
	<path class="st0" d="M37.1,37.8c-6,0-12,0-18,0c-1.3,0-2.1-0.7-2.1-1.8c0-0.9,0.5-1.6,1.4-1.9c0.4-0.1,0.9-0.1,1.4-0.1
		c11.7,0,23.4,0,35.1,0c0.4,0,0.9,0,1.3,0.1c0.9,0.3,1.5,1.1,1.4,2c-0.1,0.9-0.9,1.7-1.8,1.7c-1.1,0-2.2,0-3.4,0
		C47.2,37.8,42.1,37.8,37.1,37.8z"/>
	<path class="st0" d="M37.2,48.8c-6,0-12.1,0-18.1,0c-1.3,0-2.1-0.7-2.1-1.8c0-0.9,0.5-1.6,1.3-1.9c0.4-0.1,0.9-0.1,1.4-0.1
		c11.7,0,23.4,0,35.1,0c0.4,0,0.9,0,1.3,0.1c0.9,0.3,1.5,1.1,1.4,2c-0.1,0.9-0.9,1.7-1.8,1.7c-1.1,0-2.2,0-3.3,0
		C47.3,48.8,42.2,48.8,37.2,48.8z"/>
	<path class="st0" d="M37.2,59.8c-6,0-12.1,0-18.1,0c-1.3,0-2.1-0.7-2.1-1.8c0-0.9,0.5-1.6,1.3-1.9c0.4-0.1,0.9-0.1,1.4-0.1
		c11.7,0,23.4,0,35.1,0c0.4,0,0.9,0,1.3,0.1c0.9,0.3,1.5,1.1,1.4,2c-0.1,0.9-0.9,1.7-1.8,1.7c-1,0-2.1,0-3.1,0
		C47.4,59.8,42.3,59.8,37.2,59.8z"/>
</g>
</svg>
