<?xml version="1.0" encoding="utf-8"?>
<!-- Generator: Adobe Illustrator 18.1.1, SVG Export Plug-In . SVG Version: 6.00 Build 0)  -->
<svg version="1.1" id="Layer_1" xmlns="http://www.w3.org/2000/svg" xmlns:xlink="http://www.w3.org/1999/xlink" x="0px" y="0px"
	 viewBox="0 0 100 100" style="enable-background:new 0 0 100 100;" xml:space="preserve">
<style type="text/css">
	.st0{fill:#B30920;}
</style>
<g>
	<path class="st0" d="M12.2,83.2c0-3.5,0-7.1,0-10.6c0-2.2,1-3.4,3.3-3.5c2.3-0.1,4.5-0.1,6.8,0c1.8,0.1,2.7,0.9,3.1,2.5
		c0.2,0.7,0.4,0.6,0.9,0.3c2.4-1.4,4.8-2.8,7.1-4.3c1.7-1.1,3.6-1.3,5.5-0.7c7.3,2.6,14.5,5.2,21.8,7.8c0,0,0.1,0,0.1,0
		c1.2,1.1,2.3,0.5,3.4-0.2c4.2-2.6,8.5-5.2,12.7-7.7c3.2-1.9,7.2-1.4,9.5,1c2.1,2.2,1.9,5.6-0.5,7.5C77.9,81.7,69.9,88,62,94.3
		c-1.9,1.5-4.1,2-6.5,1.4c-7.7-1.7-15.3-3.4-23-5c-1-0.2-2-0.2-3,0.4c-1.3,0.8-2.5,1.6-3.8,2.3c-0.4,0.2-0.4,0.5-0.4,0.9
		c-0.2,1.9-1.3,3-3.2,3.1c-2.2,0.1-4.5,0.1-6.7,0c-2.1-0.1-3.2-1.3-3.2-3.5C12.2,90.3,12.2,86.8,12.2,83.2z M25.3,82.7
		c0,1.7,0,3.5,0,5.2c0,0.5-0.3,1.3,0.2,1.6c0.4,0.2,0.9-0.4,1.4-0.7c1.7-1,3.4-1.9,5.5-1.4c7.3,1.6,14.7,3.1,22,4.7
		c4.2,0.9,4.2,1,7.6-1.8c7.1-5.8,14.3-11.6,21.6-17.1c0.7-0.5,1.2-1.1,1.1-2.1c-0.1-1-0.9-1.4-1.7-1.7c-1.9-0.7-3.6-0.2-5.2,0.8
		c-4.2,2.5-8.4,5.1-12.7,7.6c-0.6,0.4-0.9,0.7-0.7,1.5c0.8,3.8-2,7.3-6,7.3c-1.1,0-2.1-0.3-3-0.7c-3.9-1.5-7.9-3-11.8-4.5
		c-1.1-0.4-1.6-1.3-1.2-2.1c0.3-0.9,1.3-1.3,2.4-0.9c0.8,0.3,1.6,0.6,2.4,0.9c3.3,1.3,6.6,2.6,10,3.8c2.4,0.9,4.5-0.7,4.2-3.1
		c-0.2-1.4-1.1-2.2-2.3-2.6c-4.7-1.7-9.4-3.4-14.2-5.1c-2.2-0.8-4.3-1.5-6.5-2.3c-1.1-0.4-2.2-0.6-3.3,0.1c-3,1.8-6,3.6-9,5.4
		c-0.5,0.3-0.7,0.7-0.7,1.2C25.3,78.7,25.3,80.7,25.3,82.7z M22.1,83.2c0-3.3,0-6.5,0-9.8c0-0.9-0.3-1.2-1.2-1.1
		c-1.6,0.1-3.1,0-4.7,0c-0.7,0-1,0.2-1,0.9c0,6.7,0,13.4,0,20.1c0,0.7,0.3,0.9,0.9,0.9c1.6,0,3.1,0,4.7,0c0.9,0,1.2-0.2,1.2-1.2
		C22.1,89.8,22.1,86.5,22.1,83.2z"/>
	<path class="st0" d="M59.3,69.6c-1.7,0-3.5,0-5.2,0c-1.4,0-2-0.6-2.2-2c-0.1-1.1-0.3-2.3-0.4-3.4c0-0.5-0.2-0.7-0.7-0.9
		c-3.4-1.6-4-4.8-1.4-7.6c0.4-0.4,0.4-0.8,0.2-1.2c-0.5-1.4-1.5-2.4-2.7-3.2c-3.4-2.5-5.9-5.8-7.1-9.9c-3.7-12.6,4.4-25.1,16.9-26.9
		c11-1.6,21.5,6.4,22.9,17.4c1,8-2,14.4-8.2,19.3c-1.1,0.9-2.2,1.8-2.7,3.1c-0.2,0.6-0.2,1.1,0.3,1.6c2.2,2.2,1.8,5.4-0.9,7
		c-0.7,0.4-1,0.8-1,1.5c-0.1,1.2-0.2,2.3-0.4,3.5c-0.2,1.2-0.8,1.7-2,1.7C62.9,69.6,61.1,69.6,59.3,69.6z M59.1,54.9
		c1.7,0,3.4,0,5.1,0c0.4,0,0.8,0,1-0.5c0.6-2.6,2.3-4.2,4.4-5.8c5.4-4.2,7.6-9.9,6.5-16.7c-1.3-8.1-9.1-15-18.6-14.1
		C47.7,18.6,40.2,28.5,42.2,38c0.9,4.5,3.2,8.2,6.9,10.9c1.9,1.3,3.3,3,3.8,5.3c0.1,0.6,0.5,0.6,1,0.6
		C55.7,54.9,57.4,54.9,59.1,54.9z M59,58c-2.2,0-4.3,0-6.5,0c-1,0-1.6,0.5-1.6,1.3c0,0.8,0.6,1.3,1.7,1.3c4.3,0,8.6,0,12.9,0
		c1,0,1.7-0.5,1.7-1.3c0-0.8-0.6-1.3-1.7-1.4C63.2,57.9,61.1,58,59,58z M59.3,63.9c-1.2,0-2.3,0-3.5,0c-0.6,0-1.2-0.1-1.1,0.8
		c0,1.5,0.2,1.8,1.2,1.8c2.2,0,4.4-0.1,6.6,0c1,0,1.5-0.3,1.5-1.3c0-0.2,0-0.3,0.1-0.5c0.1-0.7-0.2-0.9-0.9-0.9
		C61.8,63.9,60.6,63.9,59.3,63.9z"/>
	<path class="st0" d="M81.5,12.9c0,0.5-0.2,0.9-0.6,1.3c-1.3,1.3-2.5,2.5-3.8,3.8c-0.8,0.8-1.8,0.8-2.5,0.1
		c-0.7-0.7-0.6-1.6,0.2-2.4c1.3-1.3,2.6-2.5,3.9-3.8c0.5-0.5,1.1-0.7,1.7-0.4C81.1,11.8,81.4,12.3,81.5,12.9z"/>
	<path class="st0" d="M60.6,7c0,0.9,0,1.8,0,2.8c0,1-0.6,1.6-1.4,1.7c-0.9,0.1-1.6-0.5-1.7-1.5c-0.1-2-0.1-4,0-6
		c0-0.9,0.8-1.5,1.7-1.4c0.9,0.1,1.4,0.6,1.4,1.6C60.6,5.1,60.6,6,60.6,7z"/>
	<path class="st0" d="M49.9,13c-0.7,0-1.2-0.3-1.4-0.9c-0.8-1.8-1.5-3.6-2.3-5.4c-0.3-0.8,0-1.5,0.8-1.9c0.8-0.4,1.6-0.2,2,0.6
		c0.9,1.9,1.7,3.9,2.4,5.9C51.7,12.1,50.9,13,49.9,13z"/>
	<path class="st0" d="M68.1,13.4c-1.1,0-1.9-1.1-1.5-2.1c0.7-1.9,1.5-3.7,2.3-5.5C69.3,5,70,4.7,70.8,5c0.8,0.3,1.2,1,0.9,1.7
		c-0.7,2-1.6,3.9-2.4,5.9C69.1,13.2,68.6,13.3,68.1,13.4z"/>
	<path class="st0" d="M38.1,11c0.5,0,0.9,0.2,1.2,0.5c1.3,1.3,2.6,2.6,3.9,3.9c0.8,0.8,0.8,1.7,0.1,2.3c-0.7,0.6-1.5,0.6-2.3-0.2
		c-1.3-1.3-2.7-2.6-4-4c-0.5-0.5-0.7-1.1-0.4-1.7C36.9,11.3,37.4,11,38.1,11z"/>
	<path class="st0" d="M59.3,21.9C66.1,21.9,72.1,28,72,34.6c0,1.4-1.1,2.2-2.2,1.7c-0.7-0.3-0.9-1-0.9-1.7c-0.3-4.1-2.3-7.1-6.1-8.8
		C61.4,25.2,60,25,58.6,25c-0.7,0-1.3-0.3-1.6-1c-0.3-0.6-0.1-1.2,0.3-1.7C57.9,21.8,58.6,21.9,59.3,21.9z"/>
</g>
</svg>
