<?xml version="1.0" encoding="utf-8"?>
<!-- Generator: Adobe Illustrator 18.1.1, SVG Export Plug-In . SVG Version: 6.00 Build 0)  -->
<svg version="1.1" id="Layer_1" xmlns="http://www.w3.org/2000/svg" xmlns:xlink="http://www.w3.org/1999/xlink" x="0px" y="0px"
	 viewBox="0 0 100 100" style="enable-background:new 0 0 100 100;" xml:space="preserve">
<style type="text/css">
	.st0{fill:#B30920;stroke:#FFFFFF;stroke-width:0.3;}
	.st1{fill:#FFFFFF;}
</style>
<path class="st0" d="M-434.3,263.5L-434.3,263.5L-434.3,263.5c-0.7,0.6-1.6,1-2.6,1c-0.9,0-1.8-0.3-2.5-0.9l0,0
	c-0.8-0.7-9.4-8.1-17.8-18.6c-8.5-10.6-16.7-24-16.7-36.4c0-9.8,3.9-19.2,10.8-26.1c7-7,16.4-10.9,26.2-10.9s19.2,3.9,26.1,10.8
	c7,7,10.9,16.4,10.9,26.2c0,12.5-8.1,25.8-16.6,36.4C-424.9,255.5-433.6,262.9-434.3,263.5z M-437.5,254.8l0.6,0.5l0.6-0.5
	c5.1-4.7,12.2-12.2,18.1-20.6c5.9-8.3,10.6-17.5,10.6-25.7c0-7.8-3.1-15.2-8.6-20.7s-12.9-8.6-20.7-8.6c-7.8,0-15.2,3.1-20.7,8.6
	s-8.6,12.9-8.6,20.7c0,8.2,4.7,17.4,10.6,25.7C-449.7,242.6-442.5,250.1-437.5,254.8z M-446.9,193.6c3-2,6.5-3,10-3
	c4.8,0,9.4,1.9,12.8,5.3c3.4,3.4,5.3,8,5.3,12.8c0,3.6-1.1,7.1-3,10c-2,3-4.8,5.3-8.1,6.7c-3.3,1.4-6.9,1.7-10.4,1
	c-3.5-0.7-6.7-2.4-9.2-4.9s-4.2-5.7-4.9-9.2c-0.7-3.5-0.3-7.1,1-10.4C-452.2,198.4-449.9,195.5-446.9,193.6z M-442.6,217.1
	c1.7,1.2,3.7,1.8,5.7,1.8c2.7,0,5.4-1.1,7.3-3c1.9-1.9,3-4.6,3-7.3c0-2-0.6-4-1.7-5.7c-1.1-1.7-2.7-3-4.6-3.8s-4-1-6-0.6
	c-2,0.4-3.8,1.4-5.3,2.8c-1.4,1.4-2.4,3.3-2.8,5.3s-0.2,4.1,0.6,6C-445.6,214.4-444.3,216-442.6,217.1z"/>
<g>
	<path class="st1" d="M58.4,83.7c0-3.7,0-7.5,0-11.2c0-0.9,0.3-1.2,1.2-1.2c2.3,0.1,2-0.2,2,2c0,6.1,0,12.2,0,18.3
		c0,0.9,0.2,1.2,1.2,1.2c2.8-0.1,4.8-1.8,4.8-4.7c0.1-5,0.1-10.1,0-15.1c-0.1-5.3-3.5-9.3-8.6-10.4c-0.6-0.1-1.1-0.1-1.7-0.1
		c-4.2,0-8.5-0.1-12.7,0c-5,0.1-9,3.4-10.2,8.2c-0.2,0.9-0.3,1.8-0.3,2.7c0,4.8,0,9.7,0,14.5c0,3,1.9,4.9,4.9,4.9
		c0.8,0,1.1-0.3,1.1-1.1c0-6.2,0-12.4,0-18.6c0-0.3,0-0.6,0-0.9c0-0.6,0.2-0.8,0.8-0.8c2.8,0,2.3-0.3,2.3,2.2c0,7.1,0,14.2,0,21.2
		c0,1.3,0,1.3-1.3,1.3c-1.4,0-2.7,0-4.1-0.1c-4-0.4-7-3.6-7-7.6c0-5.2,0-10.4,0-15.6c0-1.1,0.1-2.2,0.4-3.3c0.2-0.6,0.1-0.9-0.6-0.9
		c-4.5,0-8.9-0.1-13.4,0.1c-4.3,0.2-8.4,4.2-9,8.6c-0.4,3.1-0.4,6.2,0,9.2c0.4,2.9,2.1,4.8,4.8,5.8c0.7,0.3,1,0.2,1-0.7
		c0-4.8,0-9.6,0-14.4c0-1,0.3-1.3,1.2-1.2c2.2,0.1,2-0.2,2,1.9c0,4.6,0,9.1,0,13.7c0,1.2,0,1.2,1.3,1.2c3.8,0,7.5,0,11.3,0
		c1,0,1.3,0.3,1.2,1.3c-0.1,2.2,0.4,2.1-2,2.1c-4.3,0-8.5,0-12.8,0c-5.2,0-9.3-2.9-10.8-7.6c-0.3-1-0.5-2-0.5-3c0-2.3,0-4.5,0-6.8
		c0.1-7.2,6.2-13.4,13.5-13.5c4.3,0,8.7-0.1,13,0c1.3,0,2.1-0.3,2.9-1.3c2.7-3.3,6.2-4.9,10.5-4.9c4.1,0,8.2,0,12.2,0
		c4.6,0,8.3,1.9,11.1,5.6c0.4,0.5,0.8,0.6,1.4,0.6c2.6-0.1,5.2-0.1,7.7-0.1c2.7,0,5.4-0.2,8.1,0.2c6.3,0.9,11.4,6.8,11.5,13.2
		c0,2.2,0,4.5,0,6.7c0,5.6-4.3,10.3-9.8,10.7c-5.1,0.4-10.3,0.1-15.4,0.1c-0.6,0-0.9-0.2-0.9-0.9c0.1-2.9-0.3-2.4,2.3-2.4
		c3.5,0,6.9,0,10.4,0c0.8,0,1-0.3,1-1c0-4.8,0-9.7,0-14.5c0-1.3,0-1.3,1.3-1.3c2.2,0,1.9-0.2,1.9,1.9c0,4.6,0,9.1,0,13.7
		c0,1.1,0.1,1.2,1.1,0.7c3.1-1.3,4.7-3.7,4.8-7c0.1-2.5,0.2-5-0.1-7.5c-0.5-4.9-4.9-9-9.8-9.2c-4.2-0.1-8.4,0-12.6,0
		c-0.8,0-0.9,0.3-0.7,1c0.4,1.2,0.4,2.5,0.4,3.8c0,4.8-0.2,9.6,0,14.3c0.2,4-2.6,8.5-8.4,8.4c-1,0-1.9,0-2.9,0
		c-0.9,0-1.2-0.2-1.2-1.2C58.4,91.2,58.4,87.5,58.4,83.7z"/>
	<path class="st1" d="M9.4,45.4c0-1.6,0-3.1,0-4.7c0-2.5,2-4.5,4.6-4.6c1.7,0,3.3,0,5,0c0.7,0,1-0.2,1.2-0.9c0.5-1.5,1.1-3,1.9-4.4
		c0.3-0.5,0.2-0.9-0.2-1.3c-1.2-1.1-2.3-2.2-3.4-3.4c-2.1-2.1-2.1-4.8,0-7c2-2.1,4.1-4.1,6.2-6.2c2.1-2,4.8-2.1,6.9-0.1
		c1.2,1.1,2.3,2.3,3.5,3.4c0.4,0.4,0.8,0.5,1.3,0.2c1.4-0.8,2.9-1.4,4.5-1.9c0.6-0.2,0.8-0.5,0.8-1.1c0-1.7,0-3.4,0-5.1
		c0-2.6,2-4.6,4.6-4.6c3.1,0,6.2,0,9.3,0c2.6,0,4.6,2,4.6,4.6c0,1.7,0,3.3,0,5c0,0.6,0.2,1,0.8,1.2c1.6,0.5,3.1,1.1,4.5,1.9
		c0.5,0.3,0.9,0.2,1.2-0.2c1.1-1.1,2.1-2.2,3.2-3.3c2.3-2.3,5-2.3,7.3,0c2,2,3.9,3.9,5.9,5.9c2.2,2.2,2.2,4.9,0,7.2
		c-1.1,1.1-2.2,2.2-3.3,3.3c-0.4,0.4-0.5,0.7-0.2,1.2c0.8,1.5,1.4,3,1.9,4.6c0.2,0.6,0.5,0.7,1,0.7c1.7,0,3.3,0,5,0
		c2.7,0,4.7,2,4.7,4.7c0,3.1,0,6.2,0,9.4c0,2.1-1.6,4-3.6,4.4c-0.7,0.1-1.2,0-1.1-0.9c0-0.4,0-0.9,0-1.3c0-0.5,0.1-0.9,0.6-1.1
		c0.7-0.3,0.9-0.9,0.9-1.6c0-2.9,0-5.7,0-8.6c0-1.1-0.5-1.6-1.7-1.6c-2.3,0-4.7,0-7,0c-0.8,0-1.2-0.2-1.4-1c-0.7-2.9-1.8-5.5-3.3-8
		c-0.4-0.6-0.3-1,0.2-1.5c1.7-1.6,3.3-3.3,4.9-4.9c1-1,1-1.7,0-2.6c-1.9-2-3.9-3.9-5.9-5.9c-1-0.9-1.7-0.9-2.6,0
		c-1.7,1.6-3.3,3.3-4.9,4.9c-0.5,0.5-0.9,0.6-1.5,0.2c-2.4-1.5-5.1-2.6-7.9-3.3c-0.8-0.2-1.1-0.5-1.1-1.4c0.1-2.2,0-4.5,0-6.7
		c0-1.5-0.5-2-1.9-2c-2.8,0-5.5,0-8.3,0c-1.4,0-1.8,0.5-1.8,1.8c0,2.3,0,4.6,0,6.9c0,0.7-0.3,1.1-1,1.3c-2.9,0.7-5.6,1.8-8.1,3.4
		c-0.5,0.3-0.9,0.3-1.3-0.2c-1.6-1.7-3.3-3.3-4.9-4.9c-1.1-1.1-1.7-1.1-2.8,0c-1.9,1.9-3.8,3.8-5.7,5.7c-1,1.1-1,1.7,0,2.8
		c1.6,1.6,3.2,3.3,4.9,4.9c0.5,0.5,0.6,0.9,0.2,1.6c-1.5,2.4-2.7,5.1-3.3,7.9c-0.2,0.8-0.6,1.1-1.4,1.1c-2.3,0-4.5,0-6.8,0
		c-1.4,0-1.9,0.5-1.9,1.9c0,2.7,0,5.5,0,8.2c0,0.8,0.2,1.5,1,1.8c0.4,0.2,0.5,0.5,0.5,0.9c0,0.4,0,0.7,0,1.1c0,1.5-0.2,1.6-1.7,1.1
		c-1.8-0.6-3-2.3-3-4.2C9.4,48.6,9.4,47,9.4,45.4z"/>
	<path class="st1" d="M70.7,45.6c-1.6,0-1.6,0-1.7-1.6c-0.7-9.2-8.3-16.4-17.5-16.8c-9.2-0.3-17.3,6.4-18.7,15.5
		c-0.1,0.7-0.2,1.5-0.2,2.2c0,0.5-0.3,0.7-0.7,0.7c-0.1,0-0.1,0-0.2,0c-2.5,0-2.5,0.3-2.2-2.4c1.1-9.9,8.3-17.4,18-19
		c11.6-2,23.2,6.5,24.7,18.2c0.1,0.5,0.2,1.1,0.2,1.6C72.3,45.6,72.3,45.6,70.7,45.6z"/>
	<path class="st1" d="M60,48.5c0,5.1-4.1,9.2-9.2,9.3c-5.1,0-9.3-4.1-9.3-9.3c0-5.2,4.1-9.3,9.3-9.2C56,39.2,60.1,43.4,60,48.5z
		 M50.8,42.5c-3.4,0-6.1,2.6-6.1,5.9c0,3.3,2.8,6,6,6c3.3,0,6-2.8,6-6C56.8,45.2,54.2,42.6,50.8,42.5z"/>
	<path class="st1" d="M34,54.6c0,5.1-4.1,9.2-9.2,9.3c-5.1,0.1-9.3-4.1-9.3-9.3c0-5.2,4.1-9.3,9.3-9.3C30,45.4,34,49.5,34,54.6z
		 M24.8,48.7c-3.4,0-6.1,2.6-6.1,5.9c0,3.3,2.8,6,6,6c3.3,0,6-2.8,6-6C30.8,51.3,28.1,48.7,24.8,48.7z"/>
	<path class="st1" d="M86.1,54.7c0,5.1-4.1,9.2-9.2,9.2c-5.1,0-9.3-4.2-9.2-9.3c0-5.2,4.1-9.2,9.3-9.2C82,45.4,86.1,49.5,86.1,54.7z
		 M76.8,48.7c-3.3,0-6,2.7-6,5.9c0,3.3,2.7,6,6,6.1c3.3,0,6-2.7,6.1-6C82.9,51.3,80.1,48.7,76.8,48.7z"/>
	<path class="st1" d="M50.8,92.8c1.7,0,3.5,0,5.2,0c0.6,0,0.9,0.2,0.9,0.9c-0.1,2.8,0.4,2.4-2.3,2.4c-3,0-5.9,0-8.9,0
		c-0.9,0-1.2-0.2-1.2-1.2c0.1-2.5-0.3-2.1,2.1-2.1C48.1,92.8,49.5,92.8,50.8,92.8z"/>
</g>
</svg>
