<?xml version="1.0" encoding="utf-8"?>
<!-- Generator: Adobe Illustrator 18.1.1, SVG Export Plug-In . SVG Version: 6.00 Build 0)  -->
<svg version="1.1" id="Layer_1" xmlns="http://www.w3.org/2000/svg" xmlns:xlink="http://www.w3.org/1999/xlink" x="0px" y="0px"
	 viewBox="0 0 100 100" style="enable-background:new 0 0 100 100;" xml:space="preserve">
<style type="text/css">
	.st0{fill:#FFFFFF;}
</style>
<g>
	<path class="st0" d="M48.6,94.5c-14.1,0-28.3,0-42.4,0c-0.4,0-0.7,0-1.1,0c-1.1-0.1-1.7-0.7-1.8-1.7c0-1,0.6-1.6,1.7-1.8
		c0.7-0.1,1.3,0,2,0c1.1,0,2.2,0,3.3,0c0.6,0,0.9-0.3,0.9-0.9c0-0.3,0-0.6,0-0.9c0-8.2,0-16.3,0-24.5c0-0.4,0-0.9,0-1.3
		c0.1-1.3,0.7-1.7,2-1.8c4.8,0,9.6,0,14.4,0c1,0,1.3-0.3,1.3-1.3c-0.1-2.7,0-5.4,0-8.2c0-2,0.6-2.6,2.6-2.6c4.4,0,8.7,0,13.1,0
		c2,0,2,0,2-2c0-2.5,0-5,0-7.6c0-2.1,0.6-2.6,2.7-2.6c4.6,0,9.3,0,13.9,0c1,0,1.3-0.3,1.2-1.2c-0.1-2,0-4,0-6.1
		c0-1.8,0.5-2.4,2.4-2.4c2.7,0,5.3,0,8,0c0.9,0,1.3-0.3,1.2-1.2c0-7.5,0-15,0-22.6c0-0.6,0-1.2,0.4-1.7c0.7-0.8,1.5-0.7,2.3-0.3
		c4.3,2.1,8.6,4.1,12.9,6.2c2,1,4,1.9,6,2.9c0.7,0.3,1.3,0.8,1.3,1.7c0,0.9-0.6,1.4-1.3,1.8c-5.8,2.6-11.6,5.3-17.3,7.9
		c-0.8,0.3-1,0.8-1,1.6c0.1,0.9,0,1.9,0,2.8c0,0.8,0.3,1,1,1c1,0,1.9,0,2.9,0c1.8,0.1,2.3,0.6,2.3,2.4c0,19.7,0,39.4,0,59
		c0,0.3,0,0.6,0,0.9c-0.1,0.7,0.3,0.9,0.9,0.9c1.7,0,3.4,0,5.2,0c0.4,0,0.7,0,1.1,0.1c0.9,0.2,1.5,0.9,1.5,1.7
		c0,0.8-0.7,1.6-1.7,1.7c-0.4,0-0.8,0-1.2,0C77,94.5,62.8,94.5,48.6,94.5z M82,61.1c0-9.5,0-19.1,0-28.6c0-1-0.3-1.3-1.3-1.3
		c-4,0.1-8,0-11.9,0c-0.9,0-1.2,0.2-1.2,1.2c0,19.1,0,38.3,0,57.4c0,0.9,0.3,1.2,1.2,1.2c3.9,0,7.9,0,11.8,0c1.4,0,1.4,0,1.4-1.4
		C82,80.1,82,70.6,82,61.1z M64.3,66c0-8,0-15.9,0-23.9c0-0.9-0.3-1.2-1.2-1.2c-4,0-8,0-12,0c-0.9,0-1.2,0.2-1.2,1.2
		c0,15.9,0,31.8,0,47.7c0,0.9,0.3,1.2,1.2,1.2c3.9,0,7.9,0,11.8,0c1.4,0,1.4,0,1.4-1.4C64.3,81.8,64.3,73.9,64.3,66z M32.3,71.9
		c0,6,0,12,0,18c0,0.8,0.3,1.1,1.1,1.1c4,0,8.1,0,12.1,0c0.8,0,1.1-0.3,1.1-1.1c0-11.9,0-23.8,0-35.7c0-0.9-0.3-1.1-1.2-1.1
		c-4,0-8,0-11.9,0c-1,0-1.2,0.3-1.2,1.3C32.3,60.2,32.3,66.1,32.3,71.9z M14.6,78c0,4,0,7.9,0,11.9c0,0.8,0.3,1.1,1.1,1.1
		c4,0,8.1,0,12.1,0c0.8,0,1.1-0.3,1.1-1.1c0-7.9,0-15.8,0-23.7c0-0.9-0.3-1.1-1.2-1.1c-4,0-8,0-12,0c-0.9,0-1.1,0.3-1.1,1.1
		C14.6,70.1,14.6,74.1,14.6,78z M93.2,12.8c-4.6-2.2-9-4.3-13.3-6.4c-0.7-0.3-0.7,0.2-0.7,0.6c0,3.7,0,7.5,0,11.2
		c0,0.8,0.2,0.9,0.9,0.6c3.4-1.6,6.8-3.1,10.2-4.7C91.2,13.7,92.1,13.3,93.2,12.8z"/>
</g>
</svg>
