<svg id="Layer_1" data-name="Layer 1" xmlns="http://www.w3.org/2000/svg" viewBox="0 0 51 51"><defs><style>.cls-1{fill:#fff;}</style></defs><title>Talk-to-us</title><path class="cls-1" d="M37.9165,36.7109l-.1559-.1248a1.71635,1.71635,0,0,0-.4054-.2339h-.0935L27.6415,33.421a1.55929,1.55929,0,0,0-1.4657.3118,8.34823,8.34823,0,0,0-1.0914,1.1382,16.57467,16.57467,0,0,1-5.7535-3.7265,16.30778,16.30778,0,0,1-3.7108-5.8002,8.00354,8.00354,0,0,0,1.1226-1.0602,1.55914,1.55914,0,0,0,.3274-1.4813l-2.8377-9.5734v-.0936a1.55909,1.55909,0,0,0-.2339-.4053l-.1247-.156a1.56077,1.56077,0,0,0-.5769-.3742,7.1872,7.1872,0,0,0-2.2765-.3586h-.9043a4.68645,4.68645,0,0,0-.77958.1403,5.12347,5.12347,0,0,0-.95111.2807,3.12091,3.12091,0,0,0-.53013.2027H7.715a6.23385,6.23385,0,0,0-.87315.5145,6.44492,6.44492,0,0,0-.85756.6393,3.74357,3.74357,0,0,0-.49894.4989A7.25047,7.25047,0,0,0,3.474,17.9382a5.87921,5.87921,0,0,0-.09355.608,5.67642,5.67642,0,0,0,0,.8888,25.61616,25.61616,0,0,0,.17151,2.9936A27.75361,27.75361,0,0,0,28.0312,47.0015a26.06445,26.06445,0,0,0,3.0093.1715,6.40122,6.40122,0,0,0,.8264,0l.6704-.1091h.343l.421-.1403a3.4008,3.4008,0,0,0,.7017-.2495h.1403l.3586-.1715a1.26381,1.26381,0,0,0,.2807-.1559l.1715-.1092.2962-.1871a7.59545,7.59545,0,0,0,1.4657-1.2941,8.12427,8.12427,0,0,0,1.0758-1.5592v-.0936a3.12142,3.12142,0,0,0,.2807-.7016,5.19256,5.19256,0,0,0,.2494-.7952,4.66917,4.66917,0,0,0,.1092-.4989,1.40222,1.40222,0,0,1,.0779-.5457,2.40366,2.40366,0,0,0,0-.7485,7.108,7.108,0,0,0-.343-2.2764A1.55832,1.55832,0,0,0,37.9165,36.7109Zm-2.4167,3.3054a1.25181,1.25181,0,0,1,0,.2339v.3742a2.294,2.294,0,0,1-.1559.4834,1.09268,1.09268,0,0,1-.0936.265l-.0779.1404a4.49035,4.49035,0,0,1-.6549,1.0134,4.10034,4.10034,0,0,1-.8732.764l-.1715.1092-.1559.0935c-.0935,0-.2027.0936-.3898.1871l-.3274.1248H31.1808a14.31923,14.31923,0,0,1-2.635-.1403A24.682,24.682,0,0,1,6.71707,21.8361a23.18352,23.18352,0,0,1-.28065-2.4011,3.84926,3.84926,0,0,1,0-.5457,2.22919,2.22919,0,0,1,0-.3586,4.50551,4.50551,0,0,1,1.13821-2.1673l.15592-.1403.26506-.2339a2.63846,2.63846,0,0,1,.45217-.3431,3.51933,3.51933,0,0,1,.40539-.2494l.17151-.078.20269-.0935h.2027a1.55749,1.55749,0,0,1,.3898-.1248H9.9446a1.19812,1.19812,0,0,0,.4678-.0779,4.12768,4.12768,0,0,1,.9823,0l2.3543,7.7959a4.55107,4.55107,0,0,1-.8419.5925l-.1092.0936-.1247.2806a1.26108,1.26108,0,0,0-.1871.2183,2.02645,2.02645,0,0,0-.1247.2651.9983.9983,0,0,0-.0936.2806,1.87886,1.87886,0,0,0,0,.2963.71615.71615,0,0,0,0,.3118v.1404a19.7707,19.7707,0,0,0,4.8803,8.1078,19.94177,19.94177,0,0,0,8.1078,4.8802h.4677a1.55973,1.55973,0,0,0,.3898,0,1.5605,1.5605,0,0,0,.4834-.2494l.1091-.2183a1.41811,1.41811,0,0,0,.2807-.3274,4.17609,4.17609,0,0,1,.5613-.8108l7.796,2.3388v.5457C35.3439,39.7669,35.4998,39.9072,35.4998,40.0163ZM35.2815,3.51562a11.694,11.694,0,0,0-11.694,11.694,11.43037,11.43037,0,0,0,1.0447,4.7711l-1.0447,5.0518a1.55142,1.55142,0,0,0,1.5592,1.871h.3119l5.0518-1.0134a11.42765,11.42765,0,0,0,4.7711,1.0134,11.69394,11.69394,0,1,0,0-23.38788Zm0,20.26948a8.45027,8.45027,0,0,1-3.898-.9355.548.548,0,0,0-.1715,0,1.18451,1.18451,0,0,0-.3118-.0935H30.37l-3.2431.6548.6549-3.2431a.88086.88086,0,0,0,0-.2027,1.04452,1.04452,0,0,0,0-.3118.92.92,0,0,0-.0936-.3119.65164.65164,0,0,0,0-.1871,8.45145,8.45145,0,0,1-.9823-3.9447,8.57562,8.57562,0,1,1,8.5756,8.5755Z"/></svg>