<?xml version="1.0" encoding="utf-8"?>
<!-- Generator: Adobe Illustrator 18.1.1, SVG Export Plug-In . SVG Version: 6.00 Build 0)  -->
<svg version="1.1" id="Layer_1" xmlns="http://www.w3.org/2000/svg" xmlns:xlink="http://www.w3.org/1999/xlink" x="0px" y="0px"
	 viewBox="0 0 100 100" style="enable-background:new 0 0 100 100;" xml:space="preserve">
<style type="text/css">
	.st0{fill:#B30920;}
</style>
<g>
	<path class="st0" d="M3.3,86.3c0-8.6,0-17.1,0-25.7c1.1-2.5,2.7-4.7,4-7c0.3-0.5,0.5-1,0.5-1.5c0-4.7,0-9.5,0-14.2
		c0-0.5-0.2-0.8-0.6-1.2c-2.5-1.9-3.1-4.3-1.8-7.1c0.2-0.4,0.2-0.6-0.2-0.9c-1-0.8-1.6-1.8-2-3c0-0.9,0-1.7,0-2.6
		c0.5-1.6,1.4-2.9,3-3.7c0.5-0.2,0.4-0.5,0.3-1c-0.8-2.9,0.1-5.2,2.7-6.7c0.5-0.3,0.6-0.6,0.4-1.1C9.4,9.5,9.3,8.4,9.7,7.3
		c0.6-2.1,2.1-3.3,4-4c8.6,0,17.1,0,25.7,0c2.5,1.1,4.7,2.7,7,4c0.5,0.3,0.9,0.5,1.5,0.5c4.8,0,9.5,0,14.3,0c0.5,0,0.8-0.1,1.1-0.5
		c2-2.6,4.1-3.2,7.3-1.8c0.4,0.2,0.6,0.1,0.8-0.2c0.8-1,1.8-1.6,3-2c0.9,0,1.7,0,2.6,0c1.6,0.5,2.9,1.5,3.7,3
		c0.3,0.6,0.6,0.4,1.1,0.2C83.9,6,86,6.3,87.4,8.1c1,1.3,1.8,1.7,3.5,1.5c2.7-0.4,4.7,1.3,5.8,4.3c0,8.5,0,17,0,25.5
		c-1.1,2.5-2.7,4.7-4,7c-0.3,0.5-0.5,1-0.5,1.5c0,4.7,0,9.5,0,14.2c0,0.5,0.1,0.8,0.6,1.2c2.5,1.9,3.1,4.3,1.8,7.1
		c-0.2,0.4-0.2,0.6,0.2,0.9c1,0.8,1.6,1.8,2,3c0,0.9,0,1.7,0,2.6c-0.5,1.5-1.3,2.8-2.7,3.5c-0.6,0.3-0.8,0.6-0.6,1.3
		c0.6,2.1,0.3,4.2-1.5,5.5c-1.3,1-1.7,1.8-1.5,3.5c0.4,2.7-1.4,4.8-4.3,5.8c-8.5,0-17,0-25.5,0c-2.5-1.1-4.7-2.7-7-4
		c-0.5-0.3-0.9-0.5-1.5-0.5c-4.8,0-9.5,0-14.3,0c-0.5,0-0.8,0.1-1.1,0.5c-2,2.6-4.1,3.2-7.3,1.8c-0.3-0.1-0.6-0.2-0.8,0.1
		c-0.8,1-1.9,1.6-3.1,2c-0.9,0-1.7,0-2.6,0c-1.6-0.5-2.9-1.5-3.7-3c-0.2-0.4-0.5-0.4-0.9-0.3c-3,0.8-5.2,0-6.8-2.7
		c-0.3-0.5-0.5-0.6-1-0.4c-1,0.4-2,0.4-3,0.2C5.4,89.8,4.1,88.3,3.3,86.3z M93.5,26.7c0-3.5,0-7,0-10.6c0-0.5,0-1.1-0.2-1.6
		c-0.3-1.1-1.2-1.8-2.4-1.7c-1.1,0.1-1.9,0.9-1.9,2.1c0,1.8,0,3.6,0,5.5c0,0.5,0,1,0,1.5c-0.1,1.1-0.8,1.7-1.8,1.7
		c-0.9-0.1-1.5-0.7-1.5-1.8c0-0.4,0-0.7,0-1.1c0-2.9,0-5.7,0-8.6c0-1.5-1-2.4-2.3-2.4c-1.3,0-2.1,0.9-2.2,2.4c0,1.9,0,3.8,0,5.7
		c0,0.3,0,0.7,0,1c-0.1,0.9-0.7,1.6-1.5,1.6c-0.9,0.1-1.6-0.5-1.7-1.5c-0.1-0.4-0.1-0.8-0.1-1.2c0-3,0-6.1,0-9.1
		c0-1.1-0.8-1.9-1.8-2.1c-1.2-0.2-2.1,0.4-2.5,1.6c-0.2,0.5-0.2,1-0.2,1.4c0,2.8,0,5.6,0,8.4c0,0.3,0,0.5,0,0.8
		c-0.1,1-0.7,1.7-1.7,1.7c-0.9,0-1.6-0.7-1.6-1.7c0-2.6,0-5.2,0-7.7c0-1.9-0.8-3-2.2-3c-1.4,0-2.2,1-2.2,2.9c0,5.3,0,10.7,0,16
		c0,0.5,0,0.9-0.1,1.4c-0.3,1.3-1.5,1.8-2.6,1c-0.5-0.4-1-0.8-1.5-1.2c-1.3-1-2.5-2.1-3.8-3c-0.8-0.6-1.8-0.5-2.5,0.2
		c-0.7,0.7-0.6,1.6,0.1,2.5c0.2,0.3,0.5,0.5,0.7,0.7c4.6,4.7,9.3,9.4,13.9,14c1.3,1.3,2,2.8,1.9,4.7c0,0.9,0,1.8,0,2.6
		c0,1.5,0,1.5,1.5,1.5c2,0,3.5,0.9,4.5,2.6c1,1.8,0.8,3.6-0.3,5.3c-0.4,0.7-1,1.2-1.5,1.9c-0.2,0.2-0.6,0.4-0.4,0.7
		c0.1,0.3,0.5,0.2,0.8,0.2c3.7,0,7.4,0,11.1,0c1.2,0,1.2,0,1.2-1.3c0-4.2,0-8.4,0-12.7c0-1.3,0.3-2.5,1-3.6c1-1.7,2-3.3,3-5
		c0.5-0.8,0.7-1.6,0.7-2.6C93.5,33.7,93.5,30.2,93.5,26.7z M26.7,6.5c-3.5,0-7,0-10.6,0c-0.6,0-1.2,0-1.7,0.2
		c-0.9,0.3-1.5,1.1-1.6,2c0,1.3,0.8,2.2,2.2,2.2c2.2,0,4.4,0,6.7,0c1.2,0,1.9,0.7,1.9,1.7c0,1-0.8,1.6-2,1.6c-1.6,0-3.2,0-4.8,0
		c-1.6,0-3.2,0-4.7,0c-1.4,0-2.4,1-2.4,2.2c0,1.3,0.9,2.2,2.4,2.2c1.1,0,2.2,0,3.3,0c1.1,0,2.2,0,3.4,0c1,0,1.7,0.7,1.8,1.6
		c0,0.9-0.6,1.6-1.7,1.7c-0.4,0-0.7,0-1.1,0c-3,0-6,0-8.9,0c-1.5,0-2.4,1.1-2.2,2.5c0.2,1.2,1.2,1.9,2.7,1.9c3.1,0,6.2,0,9.3,0
		c1.2,0,1.9,0.6,1.9,1.6c0,1-0.7,1.6-1.9,1.6c-1.7,0-3.4,0-5.1,0c-1.2,0-2.3-0.1-3.5,0.1c-1.2,0.2-2,1.1-1.9,2.3
		c0.1,1.1,1,2,2.2,2.1c0.4,0,0.8,0,1.2,0c5.2,0,10.3,0,15.5,0c0.4,0,0.8,0,1.2,0c1.6,0.2,2.2,1.6,1.2,2.9c-0.6,0.8-1.2,1.5-1.8,2.3
		c-0.8,0.9-1.6,1.9-2.3,2.8c-0.6,0.8-0.5,1.8,0.2,2.4c0.7,0.6,1.6,0.7,2.4,0c0.3-0.2,0.5-0.5,0.8-0.7c4.7-4.7,9.5-9.4,14.2-14.1
		c1.3-1.3,2.7-1.9,4.5-1.8c1.1,0,2.2,0,3.3,0c0.7,0,1-0.2,0.9-1c-0.4-3.1,2.6-5.9,5.7-5.5c1.7,0.2,2.9,1.3,4.2,2.3
		c0.2,0.2,0.4,0.6,0.8,0.4c0.3-0.2,0.1-0.6,0.1-0.8c0-3.7,0-7.4,0-11c0-1.2,0-1.2-1.2-1.2c-4.2,0-8.4,0-12.7,0c-1.4,0-2.6-0.3-3.7-1
		c-1.7-1-3.3-2-5-3c-0.8-0.5-1.6-0.7-2.5-0.7C33.7,6.5,30.2,6.5,26.7,6.5z M73.3,93.5c3.5,0,7,0,10.6,0c0.5,0,1,0,1.5-0.1
		c1.2-0.3,1.9-1.2,1.8-2.4c-0.1-1.1-0.9-1.9-2.2-1.9c-1.3,0-2.6,0-3.8,0c-1,0-2.1,0-3.1,0c-1.1-0.1-1.7-0.8-1.7-1.8
		c0.1-0.9,0.7-1.5,1.8-1.5c0.4,0,0.7,0,1.1,0c2.9,0,5.7,0,8.6,0c1.5,0,2.5-1,2.4-2.3c0-1.3-0.9-2.1-2.4-2.1c-1.4,0-2.7,0-4.1,0
		c-0.9,0-1.8,0-2.6,0c-0.9-0.1-1.6-0.7-1.6-1.5c-0.1-0.9,0.5-1.6,1.5-1.7c0.4-0.1,0.8-0.1,1.2-0.1c3,0,6,0,8.9,0
		c1.3,0,2.2-0.7,2.3-1.9c0.1-1.2-0.6-2.1-1.8-2.4c-0.4-0.1-0.8-0.1-1.2-0.1c-3,0-6,0-8.9,0c-0.6,0-1.2-0.1-1.6-0.7
		c-0.4-0.5-0.4-1.1-0.2-1.6c0.3-0.7,0.9-1,1.6-1c2.6,0,5.2,0,7.8,0c1.7,0,2.8-0.9,2.8-2.2c0-1.4-1-2.2-2.8-2.2c-0.3,0-0.5,0-0.8,0
		c-5.1,0-10.2,0-15.3,0c-0.4,0-0.8,0-1.2,0c-1.5-0.2-2.1-1.6-1.2-2.8c0.4-0.5,0.8-0.9,1.1-1.4c1-1.2,2-2.4,3-3.7
		c0.6-0.8,0.5-1.8-0.1-2.4c-0.7-0.7-1.7-0.7-2.5-0.1c-0.3,0.2-0.6,0.5-0.9,0.8c-4.7,4.6-9.4,9.3-14,13.9c-1.3,1.3-2.7,1.9-4.6,1.9
		c-1.1,0-2.1,0-3.2,0c-0.8,0-1.1,0.1-1,1c0.4,3.1-2.6,5.9-5.7,5.5c-1.7-0.2-2.9-1.3-4.2-2.3c-0.2-0.2-0.5-0.6-0.8-0.5
		c-0.4,0.1-0.2,0.6-0.2,0.9c0,3.6,0,7.3,0,10.9c0,1.3,0,1.3,1.3,1.3c4.2,0,8.4,0,12.7,0c1.3,0,2.5,0.3,3.6,1c1.7,1,3.3,2,5,3
		c0.8,0.5,1.6,0.7,2.6,0.7C66.3,93.5,69.8,93.5,73.3,93.5z M6.5,73.3c0,3.5,0,7,0,10.6c0,0.5,0,1.1,0.2,1.6c0.3,1,1,1.6,2,1.6
		c1.3,0.1,2.3-0.8,2.3-2.2c0-2.2,0-4.4,0-6.7c0-1.2,0.7-1.9,1.8-1.9c1,0,1.6,0.7,1.6,2c0,1.6,0,3.2,0,4.8c0,1.6,0,3.2,0,4.7
		c0,1.4,1,2.4,2.2,2.4c1.3,0,2.2-0.9,2.2-2.4c0-1,0-2.1,0-3.1c0-1.2,0-2.4,0-3.6c0-1,0.7-1.7,1.6-1.8c0.9,0,1.6,0.6,1.7,1.7
		c0,0.4,0,0.7,0,1.1c0,3,0,6,0,8.9c0,1.5,1,2.3,2.4,2.2c1.2-0.1,2-1.1,2-2.6c0-2.5,0-4.9,0-7.4c0-0.8,0-1.6,0-2.4
		c0.1-0.9,0.7-1.5,1.6-1.5c0.9,0,1.5,0.6,1.6,1.5c0,0.4,0,0.7,0,1.1c0,2.4,0,4.9,0,7.3c0,1.5,1,2.5,2.2,2.5c1.3,0,2.1-1,2.2-2.5
		c0-0.4,0-0.7,0-1.1c0-5.2,0-10.3,0-15.5c0-0.4,0-0.9,0.1-1.3c0.3-1.2,1.5-1.7,2.6-1c0.5,0.3,0.9,0.7,1.3,1c1.3,1.1,2.6,2.2,4,3.2
		c0.8,0.6,1.8,0.6,2.5-0.1c0.7-0.7,0.7-1.7,0-2.6c-0.2-0.3-0.5-0.5-0.7-0.7c-4.6-4.7-9.3-9.4-13.9-14c-1.3-1.3-2-2.8-1.9-4.7
		c0-1.1,0-2.2,0-3.3c0-0.6-0.2-0.9-0.9-0.8c-2.1,0.3-4.1-0.8-5.1-2.6c-1-2-0.8-3.9,0.5-5.6c0.4-0.6,0.9-1.1,1.4-1.7
		c0.2-0.2,0.5-0.4,0.4-0.7c-0.1-0.4-0.5-0.2-0.8-0.2c-3.7,0-7.4,0-11.1,0c-1.2,0-1.2,0-1.2,1.2c0,4.3,0,8.6,0,12.8
		c0,1.2-0.3,2.3-0.9,3.3c-1,1.7-2,3.4-3.1,5.1c-0.5,0.8-0.7,1.6-0.7,2.6C6.5,66.3,6.5,69.8,6.5,73.3z M31.5,49.9c0,1,0,2,0,3
		c0,0.8,0.2,1.3,0.8,1.9c4.4,4.4,8.7,8.8,13.1,13.2c0.4,0.4,0.9,0.6,1.4,0.6c2.1,0,4.1,0,6.2,0c0.7,0,1.3-0.2,1.8-0.7
		c4.4-4.4,8.8-8.7,13.2-13.1c0.4-0.4,0.6-0.8,0.6-1.4c0-2.1,0-4.2,0-6.3c0-0.7-0.2-1.2-0.7-1.7c-4.4-4.4-8.8-8.8-13.2-13.3
		c-0.4-0.4-0.8-0.6-1.4-0.6c-2,0-4,0-6,0c-0.9,0-1.6,0.3-2.2,0.9C41.5,35.9,38,39.6,34.3,43C32.2,44.9,30.7,46.9,31.5,49.9z"/>
</g>
</svg>
