<?xml version="1.0" encoding="utf-8"?>
<!-- Generator: Adobe Illustrator 18.1.1, SVG Export Plug-In . SVG Version: 6.00 Build 0)  -->
<svg version="1.1" id="Layer_1" xmlns="http://www.w3.org/2000/svg" xmlns:xlink="http://www.w3.org/1999/xlink" x="0px" y="0px"
	 viewBox="0 0 100 100" style="enable-background:new 0 0 100 100;" xml:space="preserve">
<style type="text/css">
	.st0{fill:#B30920;}
</style>
<title>Transparency</title>
<g>
	<path class="st0" d="M34.7,6C26.6,7,19,10.8,13.3,16.7c-1.2,1.2-2.7,3.1-3.4,4c-1.9,2.9-3.5,6-4.7,9.3C-0.4,46.8,7.1,65,22.8,73
		c0.6,0.2,1.1,0.5,1.6,0.9c0.9,2.1,2,4.1,3.2,6.1c2.3,3.6,5.3,6.8,8.8,9.3c10.9,8,25.4,9.4,37.5,3.4c7.3-3.5,13.2-9.4,16.7-16.7
		c6-12.4,4.6-27.1-3.8-38c-3.8-4.9-8.7-8.8-14.4-11.3c-1.2-0.5-1.2-0.6-1.9-1.9c-0.4-0.8-1.3-2.3-2-3.3C62.8,13,53.8,7.4,43.7,6.1
		C40.7,5.8,37.7,5.8,34.7,6z M43.8,12.2c10.1,1.8,18.5,8.6,22.3,18.1c0.7,1.6,1.2,3.3,1.4,5c-0.3-0.1-33-23.1-33-23.2
		c0,0,1-0.1,2.1-0.2C39.1,11.7,41.5,11.8,43.8,12.2z M47.4,28.9c18.5,13,20.5,14.4,20.5,14.9c-0.1,2.2-0.6,4.3-1.3,6.3
		c-0.6,1.8-1.4,3.6-2.4,5.3c-0.1,0-10.6-7.5-43.4-31l-3.9-2.8l1-1c1.4-1.4,3-2.7,4.6-3.8c1.3-0.9,2.7-1.7,4.2-2.3
		C26.8,14.5,36.1,21,47.4,28.9z M37.2,43.8c12.9,9.2,23.5,16.8,23.5,16.8c-0.5,0.6-1,1.1-1.5,1.6c-2,1.9-4.2,3.5-6.6,4.8L50.9,68
		l-12.8-9.4c-7-5.2-16.3-12-20.6-15.1c-8.7-6.4-8-5.6-7.5-8.1c0.7-3.3,2.9-8.8,3.4-8.5C13.6,27,24.2,34.6,37.2,43.8z M75.7,35.9
		c13.4,9.8,16.3,28.5,6.5,41.9c-9.8,13.4-28.5,16.3-41.9,6.5c-1.3-1-2.6-2.1-3.8-3.3c-1.4-1.4-2.7-3-3.9-4.7c0,0,0.8,0.1,1.8,0.2
		c5.2,0.6,10.5,0,15.5-1.5c7.7-2.6,14.3-7.6,18.8-14.4c4.7-7.3,6.6-16,5.3-24.5c-0.1-0.4-0.2-0.9-0.1-1.4
		C74.6,35.1,75.2,35.5,75.7,35.9z M26.8,58c12.9,9.5,16.4,12.1,16.2,12.3c-2.4,0.3-4.8,0.4-7.3,0.2C29,69.7,22.9,66.7,18.2,62
		c-3.6-3.5-6.3-7.9-7.6-12.8c-0.8-2.6-0.9-3.6-0.5-3.4C10.2,45.9,17.7,51.4,26.8,58z"/>
</g>
</svg>
