
<svg id="Layer_0_Image" data-name="Layer 0 Image" xmlns="http://www.w3.org/2000/svg" viewBox="0 0 176.16001 155.76001"><defs><style>.cls-1{fill:#b32024;}</style></defs><title>Ovation Final Logo Symbol</title><path class="cls-1" d="M.24,14.76c.6846-.66606,1.39416-1.30887,2.04453-2.00683.39636-.42536.69646-.44875,1.05724.00135a6.52232,6.52232,0,0,0,.5061.51066q20.46179,20.4057,40.93989,40.795c.75476.75021,1.09708,1.32187.38261,2.28175a18.27381,18.27381,0,0,0-1.25322,2.47479,8.88411,8.88411,0,0,0-.89873-1.37225Q22.14247,36.605,1.23855,15.79365C.94042,15.49677.73137,15.063.24,15Z"/><path class="cls-1" d="M11.5709,61.97914c.30337.27639.57249.50351.82134.751q6.25094,6.21675,12.4972,12.4382,38.58113,38.43,77.18105,76.841c.84246.83761.93513,1.28287.02218,2.11677-1.6,1.46142-1.54361,1.52394-3.08638-.013Q54.86148,110.136,10.7169,66.1587c-1.69618-1.68976-1.69717-1.69122.03683-3.42281C11.0031,62.48686,11.27075,62.25614,11.5709,61.97914Z"/><path class="cls-1" d="M84.59958.19955c.43741.4067.70422.64033.955.89Q96.56614,12.05433,107.57476,23.022q33.87889,33.747,67.77945,67.47224c.87016.86469.88415,1.31183.00031,2.1286-1.57174,1.45248-1.51984,1.50782-3.01518.0183Q127.79066,48.26646,83.22052,3.91333c-.89583-.89077-.9628-1.42361.01108-2.19838A12.10547,12.10547,0,0,0,84.59958.19955Z"/><path class="cls-1" d="M72.61834,2.11224c.475.45262.76708.72041,1.04765.99975q30.10377,29.9715,60.206,59.94453,10.162,10.11762,20.34473,20.21431c.69807.689.76388,1.04921.02217,1.75311-1.754,1.66454-1.71277,1.70721-3.40587.02141Q111.079,45.46268,71.3248,5.88017c-1.144-1.139-1.13714-1.13221.02533-2.33192C71.78688,3.09751,72.18318,2.60756,72.61834,2.11224Z"/><path class="cls-1" d="M10.49659,73.85771c.28836.26211.56039.491.81177.74064q5.61751,5.57925,11.23006,11.16349,28.446,28.3014,56.90847,56.58614c.80772.80173,1.01591,1.24478.05861,2.10677-1.631,1.46861-1.56808,1.5394-3.09335.02169Q43.07868,111.30793,9.74544,78.1392c-1.78644-1.77762-1.787-1.77833.02836-3.595C9.99565,74.32215,10.22881,74.11143,10.49659,73.85771Z"/><path class="cls-1" d="M154.20271,55.65843a3.06179,3.06179,0,0,1-1.00406,1.36978c-1.486,1.52772-1.491,1.52165-2.98693.0354q-26.03813-25.87-52.0951-51.72091c-.78854-.78123-.93494-1.19415-.04735-2.00923,1.6552-1.52,1.59907-1.57964,3.16343-.02569q25.99811,25.82516,52.00272,51.64374A7.04331,7.04331,0,0,0,154.20271,55.65843Z"/><path class="cls-1" d="M14.12516,90.79035a9.01555,9.01555,0,0,0,.68927.87876q20.24327,20.11765,40.49624,40.22554c2.94957,2.92932,5.88311,5.87508,8.86021,8.77614.58137.56653.65655.88842.03936,1.50036-1.84029,1.82465-1.81169,1.8544-3.68644-.00674Q36.44028,118.25576,12.33939,94.36467c-.77476-.76689-.88-1.25243-.00059-1.92614A13.96636,13.96636,0,0,0,13.52675,91.255C13.66327,91.12117,13.8295,91.01766,14.12516,90.79035Z"/><path class="cls-1" d="M117.81405,60.63421a2.14162,2.14162,0,0,1,1.038.77878q16.49551,16.419,33.00012,32.82881c.72183.71562.70254,1.07088-.00686,1.7516-1.73037,1.66045-1.69437,1.69971-3.43069-.02991q-14.02427-13.97-28.05767-27.93075a3.24644,3.24644,0,0,1-.99962-1.83541A47.7127,47.7127,0,0,0,117.81405,60.63421Z"/><path class="cls-1" d="M94.57429,37.28778a49.92025,49.92025,0,0,0-6.61367-1.83525,1.90385,1.90385,0,0,1-.96421-.67063Q73.10066,20.94124,59.19389,7.11168c-.59737-.59265-.60177-.90655-.00478-1.49625,1.8368-1.81443,1.81012-1.84184,3.60555-.05293q15.338,15.28233,30.67478,30.56585C93.77147,36.42936,94.05846,36.74548,94.57429,37.28778Z"/><path class="cls-1" d="M67.62556,36.73367a5.75425,5.75425,0,0,1-.48595.32369c-3.24947,1.34987-3.24925,1.34931-5.75717-1.151Q48.12765,22.69177,34.85215,9.49811c-.80881-.8004-.73705-1.21671.02632-1.94178,1.62866-1.54694,1.59105-1.58535,3.182-.00018Q52.254,21.69833,66.45335,35.83474A12.25826,12.25826,0,0,0,67.62556,36.73367Z"/><path class="cls-1" d="M144.25193,127.15355a3.40088,3.40088,0,0,1-.94254,1.13215c-1.47921,1.52-1.48393,1.515-2.97835.02539q-14.00728-13.9626-28.03334-27.90628c-.73593-.72912-.7536-1.15489-.11278-1.94147,1.492-1.8314,1.44558-1.86866,3.15424-.16582q14.05134,14.00329,28.10207,28.00724C143.72155,126.58418,143.98843,126.87708,144.25193,127.15355Z"/><path class="cls-1" d="M71.93351,113.4355c1.84685.24354,3.6491.48124,5.45137.71883.35405.04668.52906.341.74939.56038q13.17018,13.11507,26.34651,26.22393c.55829.554.54537.84549.00393,1.39166-1.86355,1.87985-1.84179,1.90245-3.75206.00019q-13.97753-13.9189-27.94992-27.843C72.48261,114.18825,72.07928,113.95931,71.93351,113.4355Z"/><path class="cls-1" d="M41.65982,83.29638c-.43093-.08276-.63885-.4528-.9105-.7231Q26.3359,68.23206,11.91447,53.899c-.73032-.72316-.6747-1.08121.02219-1.74765,1.731-1.65539,1.6973-1.69091,3.4198.0255q12.321,12.27745,24.65392,24.54282a3.3,3.3,0,0,1,1.01735,2.19207C41.16628,80.3766,41.441,81.82862,41.65982,83.29638Z"/><path class="cls-1" d="M120.24754,76.31868a2.17228,2.17228,0,0,1,1.02308.78286q13.56451,13.4949,27.13735,26.98133c.73485.72715.67725,1.08992-.01849,1.76074-1.72022,1.6586-1.68631,1.6932-3.34668.03841q-12.1506-12.10963-24.31729-24.203a2.18531,2.18531,0,0,1-.78832-2.28543A23.57474,23.57474,0,0,0,120.24754,76.31868Z"/><path class="cls-1" d="M85.82776,113.96316c1.2252-.24748,2.42972-.4733,3.62494-.74067.49034-.10969.7381.18578,1.01975.46627q11.767,11.71875,23.543,23.42834c.47905.4755.4769.75006.00978,1.24208-1.90579,2.0074-1.88782,2.02471-3.8348.08414q-11.76226-11.72348-23.51987-23.45164C86.37044,114.6921,85.97125,114.45964,85.82776,113.96316Z"/><path class="cls-1" d="M41.03868,69.48691c-.4145-.38833-.67873-.62287-.92858-.87184Q27.66446,56.214,15.20235,43.82952c-.72834-.72068-.68-1.069.01912-1.73729,1.72957-1.65322,1.694-1.69014,3.40193.01061Q29.7557,53.18847,40.90284,64.2591a1.98972,1.98972,0,0,1,.66643,2.30151A21.71232,21.71232,0,0,0,41.03868,69.48691Z"/><path class="cls-1" d="M78.48649,34.7794c-1.29953.13353-2.6007.2532-3.89771.40785-.47837.057-.72913-.23182-1.01226-.514Q61.6844,22.82084,49.7772,10.98365c-.53789-.5334-.49008-.79549.01285-1.30544,1.893-1.9195,1.87242-1.93977,3.736-.0837q12.06616,12.01784,24.136,24.032c.30808.30648.66974.5591,1.00642.83683Z"/><path class="cls-1" d="M118.26071,87.1431a8.19637,8.19637,0,0,0,.712,1.04444q11.79164,11.76707,23.61362,23.50356c.69336.6863.7718,1.0603.02992,1.76692-1.74925,1.66608-1.71075,1.70745-3.423.00039q-10.8636-10.83075-21.74181-21.64671a1.33439,1.33439,0,0,1-.34564-1.83122C117.50693,89.20919,117.77147,88.36684,118.26071,87.1431Z"/><path class="cls-1" d="M28.85219,25.13825c.21813.20088.39867.356.56678.52357Q40.07874,36.288,50.74718,46.90535c.46754.46415.55332.757.04133,1.22144-.66866.60659-1.07536,1.85629-1.845,1.862-.63475.00469-1.29472-1.05246-1.914-1.66868Q37.08247,38.42276,27.129,28.532c-.7-.69155-.82817-1.13021-.01418-1.76018a15.209,15.209,0,0,0,1.272-1.26935A5.07727,5.07727,0,0,1,28.85219,25.13825Z"/><path class="cls-1" d="M96.46942,111.15345c.33633-.31137.36171-.34555.39559-.36471,3.05727-1.72869,3.05745-1.72875,5.54142.74813q9.89853,9.87024,19.8132,19.72418c.68528.67768.64734,1.03825-.01311,1.67878-1.7489,1.69617-1.71869,1.72653-3.43345.01729Q108.23538,122.45336,97.68831,111.959A7.33661,7.33661,0,0,0,96.46942,111.15345Z"/><path class="cls-1" d="M58.288,41.48409c-.18313.1496-.32855.26827-.47384.38712-2.30717,1.88727-2.307,1.88716-4.44541-.24367Q43.51068,31.80416,33.63582,21.9978c-.75557-.74627-.86877-1.17328-.0388-1.95157,1.66546-1.56174,1.61873-1.613,3.26882.03176Q47.19,30.36844,57.51239,40.66065C57.765,40.91251,58.00214,41.1798,58.288,41.48409Z"/><path class="cls-1" d="M107.59931,103.63182c.19848.17352.38027.31513.54229.47659q10.48167,10.44577,20.96953,20.8853c.47276.46952.50034.73873.0251,1.23934-1.905,2.00674-1.88507,2.02382-3.85253.06432q-9.80577-9.76619-19.62726-19.51649c-.67141-.66365-.75449-1.03556.07544-1.58192A20.15237,20.15237,0,0,0,107.59931,103.63182Z"/><path class="cls-1" d="M23.02978,112.77839c.25929.23081.47305.40523.669.5978q10.04778,9.87443,20.10617,19.738c.61725.60282.568.92269-.01312,1.49965-1.8228,1.8099-1.79716,1.834-3.59873.06113q-9.44286-9.29261-18.90271-18.56781c-.68836-.6714-.71788-1.08845.0084-1.67565a17.73565,17.73565,0,0,0,1.26978-1.27139C22.702,113.02758,22.85878,112.91858,23.02978,112.77839Z"/><path class="cls-1" d="M144.42748,33.17468a13.45606,13.45606,0,0,1-2.348,2.41458c-.4118-.0172-.58371-.38557-.8285-.6257q-9.63483-9.45038-19.256-18.91469c-1.46165-1.43649-1.46158-1.43658-.01795-2.9,1.1028-1.11794,1.10229-1.11742,2.22933-.00868q9.74907,9.59088,19.49439,19.18558C143.97359,32.59462,144.34694,32.79816,144.42748,33.17468Z"/></svg>